<?xml version="1.0" encoding="UTF-8" standalone="no"?>
<!-- Generated by graphviz version 14.1.1 (20251213.1925)
 -->

<!-- Title: BackendArchitecture Pages: 1 -->

<svg
   width="915pt"
   height="371pt"
   viewBox="0.00 0.00 915.00 371.00"
   version="1.1"
   id="svg27"
   sodipodi:docname="backend.svg"
   inkscape:version="1.4.2 (ebf0e94, 2025-05-08)"
   xmlns:inkscape="http://www.inkscape.org/namespaces/inkscape"
   xmlns:sodipodi="http://sodipodi.sourceforge.net/DTD/sodipodi-0.dtd"
   xmlns="http://www.w3.org/2000/svg"
   xmlns:svg="http://www.w3.org/2000/svg">
  <defs
     id="defs27" />
  <sodipodi:namedview
     id="namedview27"
     pagecolor="#505050"
     bordercolor="#eeeeee"
     borderopacity="1"
     inkscape:showpageshadow="0"
     inkscape:pageopacity="0"
     inkscape:pagecheckerboard="0"
     inkscape:deskcolor="#505050"
     inkscape:document-units="pt"
     inkscape:zoom="1.029362"
     inkscape:cx="612.51532"
     inkscape:cy="197.69527"
     inkscape:window-width="1920"
     inkscape:window-height="1009"
     inkscape:window-x="-8"
     inkscape:window-y="-8"
     inkscape:window-maximized="1"
     inkscape:current-layer="graph0" />
  <g
     id="graph0"
     class="graph"
     transform="scale(1 1) rotate(0) translate(4 367.04)">
    <title
       id="title1">BackendArchitecture</title>
    <polygon
       fill="white"
       stroke="none"
       points="-4,4 -4,-367.04 910.7,-367.04 910.7,4 -4,4"
       id="polygon1"
       inkscape:export-filename="backend.png"
       inkscape:export-xdpi="96"
       inkscape:export-ydpi="96" />
    <text
       xml:space="preserve"
       text-anchor="middle"
       x="453.35"
       y="-6.45"
       font-family="Helvetica,sans-Serif"
       font-size="14.00"
       id="text1">Backend Architecture: Request Flow &amp; Data Persistence</text>
    <g
       id="clust1"
       class="cluster">
      <title
         id="title2">cluster_server</title>
      <polygon
         fill="#fff3e0"
         stroke="#fff3e0"
         points="8,-112.04 8,-355.04 748.7,-355.04 748.7,-112.04 8,-112.04"
         id="polygon2" />
      <text
         xml:space="preserve"
         text-anchor="middle"
         x="378.35"
         y="-337.74"
         font-family="Helvetica,sans-Serif"
         font-size="14.00"
         fill="#e65100"
         id="text2">Node.js / Express Server</text>
    </g>
    <g
       id="clust2"
       class="cluster">
      <title
         id="title3">cluster_security</title>
      <polygon
         fill="none"
         stroke="#ffb74d"
         stroke-dasharray="5,2"
         points="170.55,-223.04 170.55,-323.04 535.4,-323.04 535.4,-223.04 170.55,-223.04"
         id="polygon3" />
      <text
         xml:space="preserve"
         text-anchor="middle"
         x="352.98"
         y="-305.74"
         font-family="Helvetica,sans-Serif"
         font-size="14.00"
         fill="#e65100"
         id="text3">Security Middleware</text>
    </g>
    <g
       id="clust3"
       class="cluster">
      <title
         id="title4">cluster_routes</title>
    </g>
    <g
       id="clust4"
       class="cluster">
      <title
         id="title5">cluster_db</title>
      <polygon
         fill="#eceff1"
         stroke="#eceff1"
         points="782.7,-222.04 782.7,-323.04 906.7,-323.04 906.7,-222.04 782.7,-222.04"
         id="polygon5" />
      <text
         xml:space="preserve"
         text-anchor="middle"
         x="844.7"
         y="-305.74"
         font-family="Helvetica,sans-Serif"
         font-size="14.00"
         id="text5">Persistence Layer</text>
    </g>
    <!-- Client -->
    <g
       id="node1"
       class="node">
      <title
         id="title6">Client</title>
      <ellipse
         fill="#cfd8dc"
         stroke="black"
         stroke-width="0"
         cx="236.82"
         cy="-64.04"
         rx="40.29"
         ry="40.29"
         id="ellipse6" />
      <text
         xml:space="preserve"
         text-anchor="middle"
         x="236.82"
         y="-58.61"
         font-family="Helvetica,sans-Serif"
         font-size="14.00"
         id="text6">Client</text>
    </g>
    <!-- Express -->
    <g
       id="node2"
       class="node">
      <title
         id="title7">Express</title>
      <path
         fill="#ffcc80"
         stroke="black"
         stroke-width="0"
         d="M108.55,-223.31C108.55,-223.31 28,-223.31 28,-223.31 22,-223.31 16,-217.31 16,-211.31 16,-211.31 16,-190.76 16,-190.76 16,-184.76 22,-178.76 28,-178.76 28,-178.76 108.55,-178.76 108.55,-178.76 114.55,-178.76 120.55,-184.76 120.55,-190.76 120.55,-190.76 120.55,-211.31 120.55,-211.31 120.55,-217.31 114.55,-223.31 108.55,-223.31"
         id="path7" />
      <text
         xml:space="preserve"
         text-anchor="middle"
         x="68.27"
         y="-195.61"
         font-family="Helvetica,sans-Serif"
         font-size="14.00"
         id="text7">Express App</text>
    </g>
    <!-- Client&#45;&gt;Express -->
    <g
       id="edge1"
       class="edge">
      <title
         id="title8">Client-&gt;Express</title>
      <path
         fill="none"
         stroke="#555555"
         d="M223.7,-101.99C223.7,-137.48 223.7,-185.05 223.7,-185.05 223.7,-185.05 131.98,-185.05 131.98,-185.05"
         id="path8" />
      <polygon
         fill="#555555"
         stroke="#555555"
         points="131.98,-181.55 121.98,-185.05 131.98,-188.55 131.98,-181.55"
         id="polygon8" />
      <text
         xml:space="preserve"
         text-anchor="middle"
         x="189.36"
         y="-176.5"
         font-family="Helvetica,sans-Serif"
         font-size="9.00"
         id="text8">HTTP Request</text>
    </g>
    <!-- Hocuspocus -->
    <g
       id="node7"
       class="node">
      <title
         id="title9">Hocuspocus</title>
      <path
         fill="#c8e6c9"
         stroke="#388e3c"
         stroke-width="0"
         d="M501.52,-188.19C501.52,-188.19 378.97,-188.19 378.97,-188.19 372.97,-188.19 366.97,-182.19 366.97,-176.19 366.97,-176.19 366.97,-139.89 366.97,-139.89 366.97,-133.89 372.97,-127.89 378.97,-127.89 378.97,-127.89 501.52,-127.89 501.52,-127.89 507.52,-127.89 513.52,-133.89 513.52,-139.89 513.52,-139.89 513.52,-176.19 513.52,-176.19 513.52,-182.19 507.52,-188.19 501.52,-188.19"
         id="path9" />
      <text
         xml:space="preserve"
         text-anchor="middle"
         x="440.25"
         y="-160.49"
         font-family="Helvetica,sans-Serif"
         font-size="14.00"
         id="text9">Hocuspocus Server</text>
      <text
         xml:space="preserve"
         text-anchor="middle"
         x="440.25"
         y="-144.74"
         font-family="Helvetica,sans-Serif"
         font-size="14.00"
         id="text10">(WebSockets)</text>
    </g>
    <!-- Client&#45;&gt;Hocuspocus -->
    <g
       id="edge2"
       class="edge">
      <title
         id="title10">Client-&gt;Hocuspocus</title>
      <path
         fill="none"
         stroke="#555555"
         d="M250.7,-101.65C250.7,-126.05 250.7,-153.33 250.7,-153.33 250.7,-153.33 355.72,-153.33 355.72,-153.33"
         id="path10" />
      <polygon
         fill="#555555"
         stroke="#555555"
         points="355.72,-156.83 365.72,-153.33 355.72,-149.83 355.72,-156.83"
         id="polygon10" />
      <text
         xml:space="preserve"
         text-anchor="middle"
         x="295.77386"
         y="-156.4377"
         font-family="Helvetica, sans-Serif"
         font-size="9px"
         id="text11">WS Connection</text>
    </g>
    <!-- CORS -->
    <g
       id="node3"
       class="node">
      <title
         id="title11">CORS</title>
      <path
         fill="#ffe0b2"
         stroke="black"
         stroke-width="0"
         d="M283.1,-291.19C283.1,-291.19 190.55,-291.19 190.55,-291.19 184.55,-291.19 178.55,-285.19 178.55,-279.19 178.55,-279.19 178.55,-242.89 178.55,-242.89 178.55,-236.89 184.55,-230.89 190.55,-230.89 190.55,-230.89 283.1,-230.89 283.1,-230.89 289.1,-230.89 295.1,-236.89 295.1,-242.89 295.1,-242.89 295.1,-279.19 295.1,-279.19 295.1,-285.19 289.1,-291.19 283.1,-291.19"
         id="path11" />
      <text
         xml:space="preserve"
         text-anchor="middle"
         x="236.82"
         y="-263.49"
         font-family="Helvetica,sans-Serif"
         font-size="14.00"
         id="text12">CORS</text>
      <text
         xml:space="preserve"
         text-anchor="middle"
         x="236.82"
         y="-247.74"
         font-family="Helvetica,sans-Serif"
         font-size="14.00"
         id="text13">(Origin Check)</text>
    </g>
    <!-- Express&#45;&gt;CORS -->
    <g
       id="edge3"
       class="edge">
      <title
         id="title13">Express-&gt;CORS</title>
      <path
         fill="none"
         stroke="#555555"
         d="M120.31,-211.6C152.49,-211.6 187.7,-211.6 187.7,-211.6 187.7,-211.6 187.7,-219.63 187.7,-219.63"
         id="path13" />
      <polygon
         fill="#555555"
         stroke="#555555"
         points="184.2,-219.63 187.7,-229.63 191.2,-219.63 184.2,-219.63"
         id="polygon13" />
    </g>
    <!-- AuthGuard -->
    <g
       id="node4"
       class="node">
      <title
         id="title14">AuthGuard</title>
      <path
         fill="#ffe0b2"
         stroke="black"
         stroke-width="0"
         d="M515.4,-291.19C515.4,-291.19 365.1,-291.19 365.1,-291.19 359.1,-291.19 353.1,-285.19 353.1,-279.19 353.1,-279.19 353.1,-242.89 353.1,-242.89 353.1,-236.89 359.1,-230.89 365.1,-230.89 365.1,-230.89 515.4,-230.89 515.4,-230.89 521.4,-230.89 527.4,-236.89 527.4,-242.89 527.4,-242.89 527.4,-279.19 527.4,-279.19 527.4,-285.19 521.4,-291.19 515.4,-291.19"
         id="path14" />
      <text
         xml:space="preserve"
         text-anchor="middle"
         x="440.25"
         y="-263.49"
         font-family="Helvetica,sans-Serif"
         font-size="14.00"
         id="text14">JWT Guard</text>
      <text
         xml:space="preserve"
         text-anchor="middle"
         x="440.25"
         y="-247.74"
         font-family="Helvetica,sans-Serif"
         font-size="14.00"
         id="text15">(Verify HttpOnly Cookie)</text>
    </g>
    <!-- CORS&#45;&gt;AuthGuard -->
    <g
       id="edge4"
       class="edge">
      <title
         id="title15">CORS-&gt;AuthGuard</title>
      <path
         fill="none"
         stroke="#555555"
         d="M294.85,-261.04C294.85,-261.04 341.79,-261.04 341.79,-261.04"
         id="path15" />
      <polygon
         fill="#555555"
         stroke="#555555"
         points="341.79,-264.54 351.79,-261.04 341.79,-257.54 341.79,-264.54"
         id="polygon15" />
      <text
         xml:space="preserve"
         text-anchor="middle"
         x="317.57507"
         y="-252.49001"
         font-family="Helvetica, sans-Serif"
         font-size="9px"
         id="text16">Next()</text>
    </g>
    <!-- CORS&#45;&gt;Hocuspocus -->
    <!-- AuthRoute -->
    <g
       id="node5"
       class="node">
      <title
         id="title16">AuthRoute</title>
      <path
         fill="#ffab91"
         stroke="black"
         stroke-width="0"
         d="M709.45,-188.19C709.45,-188.19 608.65,-188.19 608.65,-188.19 602.65,-188.19 596.65,-182.19 596.65,-176.19 596.65,-176.19 596.65,-139.89 596.65,-139.89 596.65,-133.89 602.65,-127.89 608.65,-127.89 608.65,-127.89 709.45,-127.89 709.45,-127.89 715.45,-127.89 721.45,-133.89 721.45,-139.89 721.45,-139.89 721.45,-176.19 721.45,-176.19 721.45,-182.19 715.45,-188.19 709.45,-188.19"
         id="path16" />
      <text
         xml:space="preserve"
         text-anchor="middle"
         x="659.05"
         y="-160.49"
         font-family="Helvetica,sans-Serif"
         font-size="14.00"
         id="text17">/auth</text>
      <text
         xml:space="preserve"
         text-anchor="middle"
         x="659.05"
         y="-144.74"
         font-family="Helvetica,sans-Serif"
         font-size="14.00"
         id="text18">(Login/Register)</text>
    </g>
    <!-- AuthGuard&#45;&gt;AuthRoute -->
    <g
       id="edge5"
       class="edge">
      <title
         id="title18">AuthGuard-&gt;AuthRoute</title>
      <path
         fill="none"
         stroke="#555555"
         d="M520.7,-230.97C520.7,-200.57 520.7,-158.04 520.7,-158.04 520.7,-158.04 585.24,-158.04 585.24,-158.04"
         id="path18" />
      <polygon
         fill="#555555"
         stroke="#555555"
         points="585.24,-161.54 595.24,-158.04 585.24,-154.54 585.24,-161.54"
         id="polygon18" />
      <text
         xml:space="preserve"
         text-anchor="middle"
         x="552.46301"
         y="-161.69467"
         font-family="Helvetica, sans-Serif"
         font-size="9px"
         id="text19">Public/Private</text>
    </g>
    <!-- ScriptRoute -->
    <g
       id="node6"
       class="node">
      <title
         id="title19">ScriptRoute</title>
      <path
         fill="#ffab91"
         stroke="black"
         stroke-width="0"
         d="M720.7,-291.19C720.7,-291.19 597.4,-291.19 597.4,-291.19 591.4,-291.19 585.4,-285.19 585.4,-279.19 585.4,-279.19 585.4,-242.89 585.4,-242.89 585.4,-236.89 591.4,-230.89 597.4,-230.89 597.4,-230.89 720.7,-230.89 720.7,-230.89 726.7,-230.89 732.7,-236.89 732.7,-242.89 732.7,-242.89 732.7,-279.19 732.7,-279.19 732.7,-285.19 726.7,-291.19 720.7,-291.19"
         id="path19" />
      <text
         xml:space="preserve"
         text-anchor="middle"
         x="659.05"
         y="-263.49"
         font-family="Helvetica,sans-Serif"
         font-size="14.00"
         id="text20">/script</text>
      <text
         xml:space="preserve"
         text-anchor="middle"
         x="659.05"
         y="-247.74"
         font-family="Helvetica,sans-Serif"
         font-size="14.00"
         id="text21">(CRUD Operations)</text>
    </g>
    <!-- AuthGuard&#45;&gt;ScriptRoute -->
    <g
       id="edge6"
       class="edge">
      <title
         id="title21">AuthGuard-&gt;ScriptRoute</title>
      <path
         fill="none"
         stroke="#555555"
         d="M527.35,-261.04C527.35,-261.04 574.12,-261.04 574.12,-261.04"
         id="path21" />
      <polygon
         fill="#555555"
         stroke="#555555"
         points="574.12,-264.54 584.12,-261.04 574.12,-257.54 574.12,-264.54"
         id="polygon21" />
      <text
         xml:space="preserve"
         text-anchor="middle"
         x="552.45898"
         y="-267.06213"
         font-family="Helvetica, sans-Serif"
         font-size="9px"
         id="text22">Authorized</text>
    </g>
    <!-- AuthRoute&#45;&gt;Client -->
    <g
       id="edge10"
       class="edge">
      <title
         id="title22">AuthRoute-&gt;Client</title>
      <path
         fill="none"
         stroke="#e65100"
         stroke-dasharray="5,2"
         d="M658.7,-128.04C658.7,-100.53 658.7,-64.04 658.7,-64.04 658.7,-64.04 288.41,-64.04 288.41,-64.04"
         id="path22" />
      <polygon
         fill="#e65100"
         stroke="#e65100"
         points="288.41,-60.54 278.41,-64.04 288.41,-67.54 288.41,-60.54"
         id="polygon22" />
      <text
         xml:space="preserve"
         text-anchor="middle"
         x="464.3"
         y="-55.49"
         font-family="Helvetica,sans-Serif"
         font-size="9.00"
         id="text23">Set HttpOnly Cookie</text>
    </g>
    <!-- MongoDB -->
    <g
       id="node8"
       class="node">
      <title
         id="title23">MongoDB</title>
      <path
         fill="#b0bec5"
         stroke="#546e7a"
         stroke-width="0"
         d="M888.97,-286.1C888.97,-289.17 868.91,-291.67 844.2,-291.67 819.49,-291.67 799.42,-289.17 799.42,-286.1 799.42,-286.1 799.42,-235.98 799.42,-235.98 799.42,-232.91 819.49,-230.41 844.2,-230.41 868.91,-230.41 888.97,-232.91 888.97,-235.98 888.97,-235.98 888.97,-286.1 888.97,-286.1"
         id="path23" />
      <path
         fill="none"
         stroke="#546e7a"
         stroke-width="0"
         d="M888.97,-286.1C888.97,-283.02 868.91,-280.53 844.2,-280.53 819.49,-280.53 799.42,-283.02 799.42,-286.1"
         id="path24" />
      <text
         xml:space="preserve"
         text-anchor="middle"
         x="844.2"
         y="-255.61"
         font-family="Helvetica,sans-Serif"
         font-size="14.00"
         id="text24">MongoDB</text>
    </g>
    <!-- AuthRoute&#45;&gt;MongoDB -->
    <g
       id="edge7"
       class="edge">
      <title
         id="title24">AuthRoute-&gt;MongoDB</title>
      <path
         fill="none"
         stroke="#555555"
         d="M721.4,-158.04C779.98,-158.04 858.7,-158.04 858.7,-158.04 858.7,-158.04 858.7,-218.9 858.7,-218.9"
         id="path25" />
      <polygon
         fill="#555555"
         stroke="#555555"
         points="855.2,-218.9 858.7,-228.9 862.2,-218.9 855.2,-218.9"
         id="polygon25" />
      <text
         xml:space="preserve"
         text-anchor="middle"
         x="796.48"
         y="-149.49"
         font-family="Helvetica,sans-Serif"
         font-size="9.00"
         id="text25">User Profile</text>
    </g>
    <!-- ScriptRoute&#45;&gt;MongoDB -->
    <g
       id="edge8"
       class="edge">
      <title
         id="title25">ScriptRoute-&gt;MongoDB</title>
      <path
         fill="none"
         stroke="#555555"
         d="M732.49,-261.04C732.49,-261.04 788.15,-261.04 788.15,-261.04"
         id="path26" />
      <polygon
         fill="#555555"
         stroke="#555555"
         points="788.15,-264.54 798.15,-261.04 788.15,-257.54 788.15,-264.54"
         id="polygon26" />
      <text
         xml:space="preserve"
         text-anchor="middle"
         x="765.24152"
         y="-267.79074"
         font-family="Helvetica, sans-Serif"
         font-size="9px"
         id="text26">Script Metadata</text>
    </g>
    <!-- Hocuspocus&#45;&gt;MongoDB -->
    <g
       id="edge9"
       class="edge">
      <title
         id="title26">Hocuspocus-&gt;MongoDB</title>
      <path
         fill="none"
         stroke="#555555"
         d="M440.7,-188.01C440.7,-194.72 440.7,-199.9 440.7,-199.9 440.7,-199.9 829.7,-199.9 829.7,-199.9 829.7,-199.9 829.7,-218.95 829.7,-218.95"
         id="path27" />
      <polygon
         fill="#555555"
         stroke="#555555"
         points="826.2,-218.95 829.7,-228.95 833.2,-218.95 826.2,-218.95"
         id="polygon27" />
      <text
         xml:space="preserve"
         text-anchor="middle"
         x="782.54694"
         y="-203.73631"
         font-family="Helvetica, sans-Serif"
         font-size="9px"
         id="text27">Sync Yjs Blobs</text>
    </g>
  </g>
</svg>
