<?xml version="1.0" encoding="UTF-8" standalone="no"?>
<!-- Generated by graphviz version 14.1.1 (20251213.1925)
 -->

<!-- Title: FrontendDeepDive Pages: 1 -->

<svg
   width="652pt"
   height="406pt"
   viewBox="0.00 0.00 652.00 406.00"
   version="1.1"
   id="svg16"
   sodipodi:docname="frontend.svg"
   inkscape:version="1.4.2 (ebf0e94, 2025-05-08)"
   xmlns:inkscape="http://www.inkscape.org/namespaces/inkscape"
   xmlns:sodipodi="http://sodipodi.sourceforge.net/DTD/sodipodi-0.dtd"
   xmlns="http://www.w3.org/2000/svg"
   xmlns:svg="http://www.w3.org/2000/svg">
  <defs
     id="defs16" />
  <sodipodi:namedview
     id="namedview16"
     pagecolor="#505050"
     bordercolor="#eeeeee"
     borderopacity="1"
     inkscape:showpageshadow="0"
     inkscape:pageopacity="0"
     inkscape:pagecheckerboard="0"
     inkscape:deskcolor="#505050"
     inkscape:document-units="pt"
     inkscape:zoom="1.054129"
     inkscape:cx="377.08857"
     inkscape:cy="267.04511"
     inkscape:window-width="1920"
     inkscape:window-height="1009"
     inkscape:window-x="-8"
     inkscape:window-y="-8"
     inkscape:window-maximized="1"
     inkscape:current-layer="graph0" />
  <g
     id="graph0"
     class="graph"
     transform="scale(1 1) rotate(0) translate(4 401.65)">
    <title
       id="title1">FrontendDeepDive</title>
    <polygon
       fill="white"
       stroke="none"
       points="-4,4 -4,-401.65 648,-401.65 648,4 -4,4"
       id="polygon1"
       inkscape:export-filename="frontend.png"
       inkscape:export-xdpi="96"
       inkscape:export-ydpi="96" />
    <text
       xml:space="preserve"
       text-anchor="middle"
       x="322"
       y="-6.45"
       font-family="Helvetica,sans-Serif"
       font-size="14.00"
       id="text1">Frontend Architecture: Component Composition</text>
    <g
       id="clust1"
       class="cluster">
      <title
         id="title2">cluster_react</title>
      <polygon
         fill="#e1f5fe"
         stroke="#e1f5fe"
         points="8,-31.75 8,-389.65 636,-389.65 636,-31.75 8,-31.75"
         id="polygon2" />
      <text
         xml:space="preserve"
         text-anchor="middle"
         x="322"
         y="-372.35"
         font-family="Helvetica,sans-Serif"
         font-size="14.00"
         fill="#0277bd"
         id="text2">React Application Context</text>
    </g>
    <g
       id="clust2"
       class="cluster">
      <title
         id="title3">cluster_layout</title>
      <polygon
         fill="#ffffff"
         stroke="#ffffff"
         points="16,-146.55 16,-357.9 628,-357.9 628,-146.55 16,-146.55"
         id="polygon3" />
      <text
         xml:space="preserve"
         text-anchor="middle"
         x="322"
         y="-340.6"
         font-family="Helvetica,sans-Serif"
         font-size="14.00"
         fill="#455a64"
         id="text3">Layout Engine (rc-dock)</text>
    </g>
    <!-- RCDock -->
    <g
       id="node1"
       class="node">
      <title
         id="title4">RCDock</title>
      <path
         fill="#b0bec5"
         stroke="#78909c"
         stroke-width="0"
         d="M420.52,-326.15C420.52,-326.15 263.48,-326.15 263.48,-326.15 257.48,-326.15 251.47,-320.15 251.47,-314.15 251.47,-314.15 251.47,-281.35 251.47,-281.35 251.47,-275.35 257.47,-269.35 263.47,-269.35 263.47,-269.35 420.52,-269.35 420.52,-269.35 426.52,-269.35 432.52,-275.35 432.52,-281.35 432.52,-281.35 432.52,-314.15 432.52,-314.15 432.52,-320.15 426.52,-326.15 420.52,-326.15"
         id="path4" />
      <text
         xml:space="preserve"
         text-anchor="start"
         x="313.35107"
         y="-299.45001"
         font-family="Helvetica, sans-Serif"
         font-weight="bold"
         font-size="14px"
         id="text4">rc-dock</text>
      <text
         xml:space="preserve"
         text-anchor="start"
         x="261.61108"
         y="-285.45001"
         font-family="Helvetica, sans-Serif"
         font-size="14px"
         id="text5">Customizable Dashboard</text>
    </g>
    <!-- ThreeJS -->
    <g
       id="node2"
       class="node">
      <title
         id="title5">ThreeJS</title>
      <path
         fill="#ffccbc"
         stroke="#ff7043"
         stroke-width="0"
         d="M212.28,-211.35C212.28,-211.35 35.72,-211.35 35.72,-211.35 29.72,-211.35 23.72,-205.35 23.72,-199.35 23.72,-199.35 23.72,-166.55 23.72,-166.55 23.72,-160.55 29.72,-154.55 35.72,-154.55 35.72,-154.55 212.28,-154.55 212.28,-154.55 218.28,-154.55 224.28,-160.55 224.28,-166.55 224.28,-166.55 224.28,-199.35 224.28,-199.35 224.28,-205.35 218.28,-211.35 212.28,-211.35"
         id="path5" />
      <text
         xml:space="preserve"
         text-anchor="start"
         x="98.12"
         y="-184.65"
         font-family="Helvetica,sans-Serif"
         font-weight="bold"
         font-size="14.00"
         id="text6">Three.js</text>
      <text
         xml:space="preserve"
         text-anchor="start"
         x="38.12"
         y="-170.65"
         font-family="Helvetica,sans-Serif"
         font-size="14.00"
         id="text7">Tunnel Geometry Rendering</text>
    </g>
    <!-- RCDock&#45;&gt;ThreeJS -->
    <g
       id="edge1"
       class="edge">
      <title
         id="title7">RCDock-&gt;ThreeJS</title>
      <path
         fill="none"
         stroke="#555555"
         d="M259.54,-256.57C259.54,-256.57 259.54,-182.75 259.54,-182.75 259.54,-182.75 235.44,-182.75 235.44,-182.75"
         id="path7" />
      <polygon
         fill="#555555"
         stroke="#555555"
         points="259.54,-256.72 263.54,-262.72 259.54,-268.72 255.54,-262.72 259.54,-256.72"
         id="polygon7" />
      <polygon
         fill="#555555"
         stroke="#555555"
         points="235.44,-179.25 225.44,-182.75 235.44,-186.25 235.44,-179.25"
         id="polygon8" />
    </g>
    <!-- Tiptap -->
    <g
       id="node3"
       class="node">
      <title
         id="title8">Tiptap</title>
      <path
         fill="#c8e6c9"
         stroke="#66bb6a"
         stroke-width="0"
         d="M404.4,-211.35C404.4,-211.35 279.6,-211.35 279.6,-211.35 273.6,-211.35 267.6,-205.35 267.6,-199.35 267.6,-199.35 267.6,-166.55 267.6,-166.55 267.6,-160.55 273.6,-154.55 279.6,-154.55 279.6,-154.55 404.4,-154.55 404.4,-154.55 410.4,-154.55 416.4,-160.55 416.4,-166.55 416.4,-166.55 416.4,-199.35 416.4,-199.35 416.4,-205.35 410.4,-211.35 404.4,-211.35"
         id="path8" />
      <text
         xml:space="preserve"
         text-anchor="start"
         x="321.75"
         y="-184.65"
         font-family="Helvetica,sans-Serif"
         font-weight="bold"
         font-size="14.00"
         id="text8">Tiptap</text>
      <text
         xml:space="preserve"
         text-anchor="start"
         x="282"
         y="-170.65"
         font-family="Helvetica,sans-Serif"
         font-size="14.00"
         id="text9">Reactive Text Editor</text>
    </g>
    <!-- RCDock&#45;&gt;Tiptap -->
    <g
       id="edge2"
       class="edge">
      <title
         id="title9">RCDock-&gt;Tiptap</title>
      <path
         fill="none"
         stroke="#555555"
         d="M342,-256.32C342,-256.32 342,-222.51 342,-222.51"
         id="path9" />
      <polygon
         fill="#555555"
         stroke="#555555"
         points="342,-256.47 346,-262.47 342,-268.47 338,-262.47 342,-256.47"
         id="polygon9" />
      <polygon
         fill="#555555"
         stroke="#555555"
         points="345.5,-222.51 342,-212.51 338.5,-222.51 345.5,-222.51"
         id="polygon10" />
    </g>
    <!-- Antd -->
    <g
       id="node4"
       class="node">
      <title
         id="title10">Antd</title>
      <path
         fill="#e1bee7"
         stroke="#ab47bc"
         stroke-width="0"
         d="M608.4,-211.35C608.4,-211.35 471.6,-211.35 471.6,-211.35 465.6,-211.35 459.6,-205.35 459.6,-199.35 459.6,-199.35 459.6,-166.55 459.6,-166.55 459.6,-160.55 465.6,-154.55 471.6,-154.55 471.6,-154.55 608.4,-154.55 608.4,-154.55 614.4,-154.55 620.4,-160.55 620.4,-166.55 620.4,-166.55 620.4,-199.35 620.4,-199.35 620.4,-205.35 614.4,-211.35 608.4,-211.35"
         id="path10" />
      <text
         xml:space="preserve"
         text-anchor="start"
         x="482.62"
         y="-184.65"
         font-family="Helvetica,sans-Serif"
         font-weight="bold"
         font-size="14.00"
         id="text10">Ant Design (Antd)</text>
      <text
         xml:space="preserve"
         text-anchor="start"
         x="474"
         y="-170.65"
         font-family="Helvetica,sans-Serif"
         font-size="14.00"
         id="text11">Forms, Data Handling</text>
    </g>
    <!-- RCDock&#45;&gt;Antd -->
    <g
       id="edge3"
       class="edge">
      <title
         id="title11">RCDock-&gt;Antd</title>
      <path
         fill="none"
         stroke="#555555"
         d="M424.46,-256.57C424.46,-256.57 424.46,-182.75 424.46,-182.75 424.46,-182.75 448.24,-182.75 448.24,-182.75"
         id="path11" />
      <polygon
         fill="#555555"
         stroke="#555555"
         points="424.46,-256.72 428.46,-262.72 424.46,-268.72 420.46,-262.72 424.46,-256.72"
         id="polygon11" />
      <polygon
         fill="#555555"
         stroke="#555555"
         points="448.24,-186.25 458.24,-182.75 448.24,-179.25 448.24,-186.25"
         id="polygon12" />
    </g>
    <!-- Yjs -->
    <g
       id="node5"
       class="node">
      <title
         id="title12">Yjs</title>
      <polygon
         fill="#fff9c4"
         stroke="#fbc02d"
         stroke-width="0"
         points="438.9,-96.55 239.1,-96.55 239.1,-39.75 444.9,-39.75 444.9,-90.55 438.9,-96.55"
         id="polygon13" />
      <polyline
         fill="none"
         stroke="#fbc02d"
         stroke-width="0"
         points="438.9,-96.55 438.9,-90.55"
         id="polyline13" />
      <polyline
         fill="none"
         stroke="#fbc02d"
         stroke-width="0"
         points="444.9,-90.55 438.9,-90.55"
         id="polyline14" />
      <text
         xml:space="preserve"
         text-anchor="start"
         x="331.88"
         y="-69.85"
         font-family="Helvetica,sans-Serif"
         font-weight="bold"
         font-size="14.00"
         id="text14">Yjs</text>
      <text
         xml:space="preserve"
         text-anchor="start"
         x="253.5"
         y="-55.85"
         font-family="Helvetica,sans-Serif"
         font-size="14.00"
         id="text15">CRDT / Data Synchronization</text>
    </g>
    <!-- Tiptap&#45;&gt;Yjs -->
    <!-- Yjs&#45;&gt;Tiptap -->
    <g
       id="edge4"
       class="edge">
      <title
         id="title15">Yjs-&gt;Tiptap</title>
      <path
         fill="none"
         stroke="#f57f17"
         stroke-dasharray="5,2"
         d="M366.8,-96.53C366.8,-96.53 366.8,-143.39 366.8,-143.39"
         id="path15" />
      <polygon
         fill="#f57f17"
         stroke="#f57f17"
         points="363.3,-143.39 366.8,-153.39 370.3,-143.39 363.3,-143.39"
         id="polygon15" />
      <text
         xml:space="preserve"
         text-anchor="middle"
         x="350.67"
         y="-121.91"
         font-family="Helvetica,sans-Serif"
         font-size="9.00"
         id="text16">binds to</text>
    </g>
  </g>
</svg>
