<?xml version="1.0" encoding="UTF-8" standalone="no"?>
<!-- Generated by graphviz version 14.1.1 (20251213.1925)
 -->

<!-- Title: InferenceService Pages: 1 -->

<svg
   width="779pt"
   height="847pt"
   viewBox="0.00 0.00 779.00 847.00"
   version="1.1"
   id="svg26"
   sodipodi:docname="inference.svg"
   inkscape:version="1.4.2 (ebf0e94, 2025-05-08)"
   xmlns:inkscape="http://www.inkscape.org/namespaces/inkscape"
   xmlns:sodipodi="http://sodipodi.sourceforge.net/DTD/sodipodi-0.dtd"
   xmlns="http://www.w3.org/2000/svg"
   xmlns:svg="http://www.w3.org/2000/svg">
  <defs
     id="defs26" />
  <sodipodi:namedview
     id="namedview26"
     pagecolor="#505050"
     bordercolor="#eeeeee"
     borderopacity="1"
     inkscape:showpageshadow="0"
     inkscape:pageopacity="0"
     inkscape:pagecheckerboard="0"
     inkscape:deskcolor="#505050"
     inkscape:document-units="pt"
     inkscape:zoom="0.71458087"
     inkscape:cx="519.88517"
     inkscape:cy="564.66667"
     inkscape:window-width="1920"
     inkscape:window-height="1009"
     inkscape:window-x="-8"
     inkscape:window-y="-8"
     inkscape:window-maximized="1"
     inkscape:current-layer="svg26" />
  <g
     id="graph0"
     class="graph"
     transform="scale(1 1) rotate(0) translate(4 842.85)"
     inkscape:export-filename="inference.png"
     inkscape:export-xdpi="96"
     inkscape:export-ydpi="96">
    <title
       id="title1">InferenceService</title>
    <polygon
       fill="white"
       stroke="none"
       points="-4,4 -4,-842.85 775,-842.85 775,4 -4,4"
       id="polygon1" />
    <text
       xml:space="preserve"
       text-anchor="middle"
       x="385.5"
       y="-6.45"
       font-family="Helvetica,sans-Serif"
       font-size="14.00"
       id="text1">Inference Service: Memory State &amp; Request Handling</text>
    <g
       id="clust1"
       class="cluster">
      <title
         id="title2">cluster_python_service</title>
      <polygon
         fill="#e8f5e9"
         stroke="#e8f5e9"
         points="8,-111.3 8,-830.85 629,-830.85 629,-111.3 8,-111.3"
         id="polygon2" />
      <text
         xml:space="preserve"
         text-anchor="middle"
         x="318.5"
         y="-813.55"
         font-family="Helvetica,sans-Serif"
         font-size="14.00"
         fill="#2e7d32"
         id="text2">Python Microservice (FastAPI)</text>
    </g>
    <g
       id="clust2"
       class="cluster">
      <title
         id="title3">cluster_handlers</title>
    </g>
    <g
       id="clust3"
       class="cluster">
      <title
         id="title4">cluster_memory</title>
      <polygon
         fill="#ffffff"
         stroke="#ffffff"
         points="16,-119.3 16,-215.85 621,-215.85 621,-119.3 16,-119.3"
         id="polygon4" />
      <text
         xml:space="preserve"
         text-anchor="middle"
         x="318.5"
         y="-198.55"
         font-family="Helvetica,sans-Serif"
         font-size="14.00"
         fill="#455a64"
         id="text4">In-Memory Model Registry (Pre-loaded)</text>
    </g>
    <!-- Backend -->
    <g
       id="node1"
       class="node">
      <title
         id="title5">Backend</title>
      <path
         fill="none"
         stroke="#e65100"
         stroke-width="0"
         stroke-dasharray="5,2"
         d="M682.4,-68.3C682.4,-68.3 575.6,-68.3 575.6,-68.3 569.6,-68.3 563.6,-62.3 563.6,-56.3 563.6,-56.3 563.6,-35.75 563.6,-35.75 563.6,-29.75 569.6,-23.75 575.6,-23.75 575.6,-23.75 682.4,-23.75 682.4,-23.75 688.4,-23.75 694.4,-29.75 694.4,-35.75 694.4,-35.75 694.4,-56.3 694.4,-56.3 694.4,-62.3 688.4,-68.3 682.4,-68.3"
         id="path5" />
      <text
         xml:space="preserve"
         text-anchor="middle"
         x="629"
         y="-40.6"
         font-family="Helvetica,sans-Serif"
         font-size="14.00"
         id="text5">Node.js Backend</text>
    </g>
    <!-- Uvicorn -->
    <g
       id="node2"
       class="node">
      <title
         id="title6">Uvicorn</title>
      <path
         fill="#a5d6a7"
         stroke="#388e3c"
         stroke-width="0"
         d="M606.9,-799.1C606.9,-799.1 467.1,-799.1 467.1,-799.1 461.1,-799.1 455.1,-793.1 455.1,-787.1 455.1,-787.1 455.1,-766.55 455.1,-766.55 455.1,-760.55 461.1,-754.55 467.1,-754.55 467.1,-754.55 606.9,-754.55 606.9,-754.55 612.9,-754.55 618.9,-760.55 618.9,-766.55 618.9,-766.55 618.9,-787.1 618.9,-787.1 618.9,-793.1 612.9,-799.1 606.9,-799.1"
         id="path6" />
      <text
         xml:space="preserve"
         text-anchor="middle"
         x="537"
         y="-771.4"
         font-family="Helvetica,sans-Serif"
         font-size="14.00"
         id="text6">Uvicorn (ASGI Server)</text>
    </g>
    <!-- Backend&#45;&gt;Uvicorn -->
    <g
       id="edge1"
       class="edge">
      <title
         id="title7">Backend-&gt;Uvicorn</title>
      <path
         fill="none"
         stroke="#555555"
         d="M638.68,-68.3C652.96,-99.68 678,-154.7 678,-154.7 678,-664.77 678,-664.77 678,-664.77 678,-664.77 614.43,-714.84 572.66,-747.74"
         id="path7" />
      <polygon
         fill="#555555"
         stroke="#555555"
         points="570.73,-744.8 565.04,-753.74 575.06,-750.3 570.73,-744.8"
         id="polygon7" />
      <text
         xml:space="preserve"
         text-anchor="middle"
         x="724.5"
         y="-419"
         font-family="Helvetica,sans-Serif"
         font-size="9.00"
         id="text7">POST /analyze (JSON)</text>
    </g>
    <!-- Router -->
    <g
       id="node3"
       class="node">
      <title
         id="title8">Router</title>
      <path
         fill="#c8e6c9"
         stroke="#4caf50"
         stroke-width="0"
         d="M557.52,-686.05C557.52,-686.05 460.48,-686.05 460.48,-686.05 454.48,-686.05 448.48,-680.05 448.48,-674.05 448.48,-674.05 448.48,-653.5 448.48,-653.5 448.48,-647.5 454.48,-641.5 460.48,-641.5 460.48,-641.5 557.52,-641.5 557.52,-641.5 563.52,-641.5 569.52,-647.5 569.52,-653.5 569.52,-653.5 569.52,-674.05 569.52,-674.05 569.52,-680.05 563.52,-686.05 557.52,-686.05"
         id="path8" />
      <text
         xml:space="preserve"
         text-anchor="middle"
         x="509"
         y="-658.35"
         font-family="Helvetica,sans-Serif"
         font-size="14.00"
         id="text8">FastAPI Router</text>
    </g>
    <!-- Uvicorn&#45;&gt;Router -->
    <g
       id="edge2"
       class="edge">
      <title
         id="title9">Uvicorn-&gt;Router</title>
      <path
         fill="none"
         stroke="#555555"
         d="M531.67,-754.68C527.54,-738.31 521.76,-715.38 517.07,-696.77"
         id="path9" />
      <polygon
         fill="#555555"
         stroke="#555555"
         points="520.52,-696.15 514.68,-687.31 513.73,-697.87 520.52,-696.15"
         id="polygon9" />
      <text
         xml:space="preserve"
         text-anchor="middle"
         x="540.71"
         y="-717"
         font-family="Helvetica,sans-Serif"
         font-size="9.00"
         id="text9">Forward</text>
    </g>
    <!-- Handler_NER -->
    <g
       id="node4"
       class="node">
      <title
         id="title10">Handler_NER</title>
      <path
         fill="#dcedc8"
         stroke="black"
         stroke-width="0"
         d="M450.02,-571.75C450.02,-571.75 391.98,-571.75 391.98,-571.75 385.98,-571.75 379.98,-565.75 379.98,-559.75 379.98,-559.75 379.98,-523.45 379.98,-523.45 379.98,-517.45 385.98,-511.45 391.98,-511.45 391.98,-511.45 450.02,-511.45 450.02,-511.45 456.02,-511.45 462.02,-517.45 462.02,-523.45 462.02,-523.45 462.02,-559.75 462.02,-559.75 462.02,-565.75 456.02,-571.75 450.02,-571.75"
         id="path10" />
      <text
         xml:space="preserve"
         text-anchor="middle"
         x="421"
         y="-544.05"
         font-family="Helvetica,sans-Serif"
         font-size="14.00"
         id="text10">/ner</text>
      <text
         xml:space="preserve"
         text-anchor="middle"
         x="421"
         y="-528.3"
         font-family="Helvetica,sans-Serif"
         font-size="14.00"
         id="text11">Endpoint</text>
    </g>
    <!-- Router&#45;&gt;Handler_NER -->
    <g
       id="edge3"
       class="edge">
      <title
         id="title11">Router-&gt;Handler_NER</title>
      <path
         fill="none"
         stroke="#555555"
         d="M493.47,-641.57C481.2,-624.81 463.76,-600.99 449.06,-580.92"
         id="path11" />
      <polygon
         fill="#555555"
         stroke="#555555"
         points="451.94,-578.93 443.21,-572.93 446.29,-583.07 451.94,-578.93"
         id="polygon11" />
    </g>
    <!-- Handler_Sent -->
    <g
       id="node5"
       class="node">
      <title
         id="title12">Handler_Sent</title>
      <path
         fill="#dcedc8"
         stroke="black"
         stroke-width="0"
         d="M467.9,-452.45C467.9,-452.45 400.1,-452.45 400.1,-452.45 394.1,-452.45 388.1,-446.45 388.1,-440.45 388.1,-440.45 388.1,-404.15 388.1,-404.15 388.1,-398.15 394.1,-392.15 400.1,-392.15 400.1,-392.15 467.9,-392.15 467.9,-392.15 473.9,-392.15 479.9,-398.15 479.9,-404.15 479.9,-404.15 479.9,-440.45 479.9,-440.45 479.9,-446.45 473.9,-452.45 467.9,-452.45"
         id="path12" />
      <text
         xml:space="preserve"
         text-anchor="middle"
         x="434"
         y="-424.75"
         font-family="Helvetica,sans-Serif"
         font-size="14.00"
         id="text12">/sentiment</text>
      <text
         xml:space="preserve"
         text-anchor="middle"
         x="434"
         y="-409"
         font-family="Helvetica,sans-Serif"
         font-size="14.00"
         id="text13">Endpoint</text>
    </g>
    <!-- Router&#45;&gt;Handler_Sent -->
    <g
       id="edge4"
       class="edge">
      <title
         id="title13">Router-&gt;Handler_Sent</title>
      <path
         fill="none"
         stroke="#555555"
         d="M505.52,-641.73C498.65,-600.15 484,-511.45 484,-511.45 484,-511.45 469.42,-485.74 456,-462.09"
         id="path13" />
      <polygon
         fill="#555555"
         stroke="#555555"
         points="459.1,-460.45 451.12,-453.48 453.01,-463.91 459.1,-460.45"
         id="polygon13" />
    </g>
    <!-- Handler_Syn -->
    <g
       id="node6"
       class="node">
      <title
         id="title14">Handler_Syn</title>
      <path
         fill="#dcedc8"
         stroke="black"
         stroke-width="0"
         d="M475.52,-323.65C475.52,-323.65 414.48,-323.65 414.48,-323.65 408.48,-323.65 402.48,-317.65 402.48,-311.65 402.48,-311.65 402.48,-275.35 402.48,-275.35 402.48,-269.35 408.48,-263.35 414.48,-263.35 414.48,-263.35 475.52,-263.35 475.52,-263.35 481.52,-263.35 487.52,-269.35 487.52,-275.35 487.52,-275.35 487.52,-311.65 487.52,-311.65 487.52,-317.65 481.52,-323.65 475.52,-323.65"
         id="path14" />
      <text
         xml:space="preserve"
         text-anchor="middle"
         x="445"
         y="-295.95"
         font-family="Helvetica,sans-Serif"
         font-size="14.00"
         id="text14">/synopsis</text>
      <text
         xml:space="preserve"
         text-anchor="middle"
         x="445"
         y="-280.2"
         font-family="Helvetica,sans-Serif"
         font-size="14.00"
         id="text15">Endpoint</text>
    </g>
    <!-- Router&#45;&gt;Handler_Syn -->
    <g
       id="edge5"
       class="edge">
      <title
         id="title15">Router-&gt;Handler_Syn</title>
      <path
         fill="none"
         stroke="#555555"
         d="M510.25,-641.75C511.08,-627.97 512,-612.5 512,-612.5 512,-612.5 512,-611.5 512,-611.5 512,-611.5 501,-392.15 501,-392.15 501,-392.15 482.88,-360.56 467.26,-333.31"
         id="path15" />
      <polygon
         fill="#555555"
         stroke="#555555"
         points="470.41,-331.78 462.4,-324.85 464.34,-335.26 470.41,-331.78"
         id="polygon15" />
    </g>
    <!-- Handler_NER&#45;&gt;Handler_Sent -->
    <!-- Model_NER -->
    <g
       id="node7"
       class="node">
      <title
         id="title16">Model_NER</title>
      <polygon
         fill="#b39ddb"
         stroke="#5e35b1"
         stroke-width="0"
         points="181.53,-184.1 24.47,-184.1 24.47,-180.1 20.47,-180.1 20.47,-176.1 24.47,-176.1 24.47,-135.3 20.47,-135.3 20.47,-131.3 24.47,-131.3 24.47,-127.3 181.53,-127.3 181.53,-184.1"
         id="polygon16" />
      <polyline
         fill="none"
         stroke="#5e35b1"
         stroke-width="0"
         points="24.47,-180.1 28.47,-180.1 28.47,-176.1 24.47,-176.1"
         id="polyline16" />
      <polyline
         fill="none"
         stroke="#5e35b1"
         stroke-width="0"
         points="24.47,-135.3 28.47,-135.3 28.47,-131.3 24.47,-131.3"
         id="polyline17" />
      <text
         xml:space="preserve"
         text-anchor="start"
         x="67"
         y="-157.4"
         font-family="Helvetica,sans-Serif"
         font-weight="bold"
         font-size="14.00"
         id="text17">NER Model</text>
      <text
         xml:space="preserve"
         text-anchor="start"
         x="38.88"
         y="-143.4"
         font-family="Helvetica,sans-Serif"
         font-size="14.00"
         id="text18">(Token Classification)</text>
    </g>
    <!-- Handler_NER&#45;&gt;Model_NER -->
    <g
       id="edge6"
       class="edge">
      <title
         id="title18">Handler_NER-&gt;Model_NER</title>
      <path
         fill="none"
         stroke="#555555"
         d="M397.1,-511.75C339.98,-442.79 195.67,-268.57 132.91,-192.81"
         id="path18" />
      <polygon
         fill="#555555"
         stroke="#555555"
         points="135.72,-190.71 126.64,-185.24 130.32,-195.17 135.72,-190.71"
         id="polygon18" />
      <text
         xml:space="preserve"
         text-anchor="middle"
         x="285"
         y="-354.6"
         font-family="Helvetica,sans-Serif"
         font-size="9.00"
         id="text19">infer()</text>
    </g>
    <!-- Handler_Sent&#45;&gt;Handler_Syn -->
    <!-- Model_Sent -->
    <g
       id="node8"
       class="node">
      <title
         id="title19">Model_Sent</title>
      <polygon
         fill="#b39ddb"
         stroke="#5e35b1"
         stroke-width="0"
         points="405.9,-184.1 224.1,-184.1 224.1,-180.1 220.1,-180.1 220.1,-176.1 224.1,-176.1 224.1,-135.3 220.1,-135.3 220.1,-131.3 224.1,-131.3 224.1,-127.3 405.9,-127.3 405.9,-184.1"
         id="polygon19" />
      <polyline
         fill="none"
         stroke="#5e35b1"
         stroke-width="0"
         points="224.1,-180.1 228.1,-180.1 228.1,-176.1 224.1,-176.1"
         id="polyline19" />
      <polyline
         fill="none"
         stroke="#5e35b1"
         stroke-width="0"
         points="224.1,-135.3 228.1,-135.3 228.1,-131.3 224.1,-131.3"
         id="polyline20" />
      <text
         xml:space="preserve"
         text-anchor="start"
         x="260.25"
         y="-157.4"
         font-family="Helvetica,sans-Serif"
         font-weight="bold"
         font-size="14.00"
         id="text20">Sentiment Model</text>
      <text
         xml:space="preserve"
         text-anchor="start"
         x="238.5"
         y="-143.4"
         font-family="Helvetica,sans-Serif"
         font-size="14.00"
         id="text21">(Sequence Classification)</text>
    </g>
    <!-- Handler_Sent&#45;&gt;Model_Sent -->
    <g
       id="edge7"
       class="edge">
      <title
         id="title21">Handler_Sent-&gt;Model_Sent</title>
      <path
         fill="none"
         stroke="#555555"
         d="M411.11,-392.27C388.41,-363.48 357,-323.65 357,-323.65 357,-323.65 336.98,-244.08 324.59,-194.81"
         id="path21" />
      <polygon
         fill="#555555"
         stroke="#555555"
         points="328.04,-194.21 322.21,-185.36 321.26,-195.91 328.04,-194.21"
         id="polygon21" />
      <text
         xml:space="preserve"
         text-anchor="middle"
         x="369"
         y="-290.2"
         font-family="Helvetica,sans-Serif"
         font-size="9.00"
         id="text22">infer()</text>
    </g>
    <!-- Model_Syn -->
    <g
       id="node9"
       class="node">
      <title
         id="title22">Model_Syn</title>
      <polygon
         fill="#b39ddb"
         stroke="#5e35b1"
         stroke-width="0"
         points="613.27,-184.1 448.73,-184.1 448.73,-180.1 444.73,-180.1 444.73,-176.1 448.73,-176.1 448.73,-135.3 444.73,-135.3 444.73,-131.3 448.73,-131.3 448.73,-127.3 613.27,-127.3 613.27,-184.1"
         id="polygon22" />
      <polyline
         fill="none"
         stroke="#5e35b1"
         stroke-width="0"
         points="448.73,-180.1 452.73,-180.1 452.73,-176.1 448.73,-176.1"
         id="polyline22" />
      <polyline
         fill="none"
         stroke="#5e35b1"
         stroke-width="0"
         points="448.73,-135.3 452.73,-135.3 452.73,-131.3 448.73,-131.3"
         id="polyline23" />
      <text
         xml:space="preserve"
         text-anchor="start"
         x="479.25"
         y="-157.4"
         font-family="Helvetica,sans-Serif"
         font-weight="bold"
         font-size="14.00"
         id="text23">Synopsis Model</text>
      <text
         xml:space="preserve"
         text-anchor="start"
         x="463.12"
         y="-143.4"
         font-family="Helvetica,sans-Serif"
         font-size="14.00"
         id="text24">(Seq2Seq Generation)</text>
    </g>
    <!-- Handler_Syn&#45;&gt;Model_Syn -->
    <g
       id="edge8"
       class="edge">
      <title
         id="title24">Handler_Syn-&gt;Model_Syn</title>
      <path
         fill="none"
         stroke="#555555"
         d="M463.45,-263.37C476.37,-242.96 493.75,-215.52 507.64,-193.58"
         id="path24" />
      <polygon
         fill="#555555"
         stroke="#555555"
         points="510.55,-195.53 512.94,-185.21 504.64,-191.79 510.55,-195.53"
         id="polygon24" />
      <text
         xml:space="preserve"
         text-anchor="middle"
         x="509.38"
         y="-225.8"
         font-family="Helvetica,sans-Serif"
         font-size="9.00"
         id="text25">generate()</text>
    </g>
    <!-- Model_Syn&#45;&gt;Backend -->
    <g
       id="edge9"
       class="edge">
      <title
         id="title25">Model_Syn-&gt;Backend</title>
      <path
         fill="none"
         stroke="#2e7d32"
         stroke-dasharray="5,2"
         d="M555.73,-127.53C569.89,-111.97 587.67,-92.43 602.17,-76.5"
         id="path25" />
      <polygon
         fill="#2e7d32"
         stroke="#2e7d32"
         points="604.68,-78.94 608.82,-69.19 599.5,-74.23 604.68,-78.94"
         id="polygon25" />
      <text
         xml:space="preserve"
         text-anchor="middle"
         x="544.82"
         y="-103.97"
         font-family="Helvetica,sans-Serif"
         font-size="9.00"
         id="text26">JSON Response</text>
    </g>
  </g>
</svg>
