<?xml version="1.0" encoding="UTF-8" standalone="no"?>
<!-- Generated by graphviz version 14.1.1 (20251213.1925)
 -->

<!-- Title: YjsHocuspocus_Fixed Pages: 1 -->

<svg
   width="923pt"
   height="809pt"
   viewBox="0.00 0.00 923.00 809.00"
   version="1.1"
   id="svg57"
   sodipodi:docname="script.svg"
   inkscape:version="1.4.2 (ebf0e94, 2025-05-08)"
   xmlns:inkscape="http://www.inkscape.org/namespaces/inkscape"
   xmlns:sodipodi="http://sodipodi.sourceforge.net/DTD/sodipodi-0.dtd"
   xmlns="http://www.w3.org/2000/svg"
   xmlns:svg="http://www.w3.org/2000/svg">
  <defs
     id="defs57" />
  <sodipodi:namedview
     id="namedview57"
     pagecolor="#505050"
     bordercolor="#eeeeee"
     borderopacity="1"
     inkscape:showpageshadow="0"
     inkscape:pageopacity="0"
     inkscape:pagecheckerboard="0"
     inkscape:deskcolor="#505050"
     inkscape:document-units="pt"
     inkscape:zoom="0.52901901"
     inkscape:cx="723.0364"
     inkscape:cy="479.18883"
     inkscape:window-width="1920"
     inkscape:window-height="1009"
     inkscape:window-x="-8"
     inkscape:window-y="-8"
     inkscape:window-maximized="1"
     inkscape:current-layer="graph0" />
  <g
     id="graph0"
     class="graph"
     transform="scale(1 1) rotate(0) translate(4 804.75)">
    <title
       id="title1">YjsHocuspocus_Fixed</title>
    <polygon
       fill="white"
       stroke="none"
       points="-4,4 -4,-804.75 919,-804.75 919,4 -4,4"
       id="polygon1"
       inkscape:export-filename="script.png"
       inkscape:export-xdpi="96"
       inkscape:export-ydpi="96" />
    <text
       xml:space="preserve"
       text-anchor="middle"
       x="457.5"
       y="-6.4499998"
       font-family="Helvetica, sans-Serif"
       font-size="14px"
       id="text1">Yjs Data Model</text>
    <g
       id="clust1"
       class="cluster">
      <title
         id="title2">cluster_ydoc</title>
      <polygon
         fill="#fff9c4"
         stroke="#fff9c4"
         points="8,-397 8,-792.75 778,-792.75 778,-397 8,-397"
         id="polygon2" />
      <text
         xml:space="preserve"
         text-anchor="middle"
         x="393"
         y="-775.45"
         font-family="Helvetica,sans-Serif"
         font-size="14.00"
         fill="#fbc02d"
         id="text2">Shared Document (Y.Doc)</text>
    </g>
    <g
       id="clust3"
       class="cluster">
      <title
         id="title3">cluster_persistence</title>
      <polygon
         fill="#e8f5e9"
         stroke="#e8f5e9"
         points="719,-31.75 719,-388.75 907,-388.75 907,-31.75 719,-31.75"
         id="polygon3" />
      <text
         xml:space="preserve"
         text-anchor="middle"
         x="813"
         y="-371.45"
         font-family="Helvetica,sans-Serif"
         font-size="14.00"
         fill="#2e7d32"
         id="text3">Hocuspocus Server Layer</text>
    </g>
    <!-- YDoc -->
    <g
       id="node1"
       class="node">
      <title
         id="title4">YDoc</title>
      <polygon
         fill="#fff59d"
         stroke="none"
         points="486.88,-657.75 486.88,-749 631.12,-749 631.12,-657.75 486.88,-657.75"
         id="polygon4" />
      <polygon
         fill="none"
         stroke="black"
         points="486.88,-711.25 486.88,-749 631.12,-749 631.12,-711.25 486.88,-711.25"
         id="polygon5" />
      <text
         xml:space="preserve"
         text-anchor="start"
         x="511.38"
         y="-725.7"
         font-family="Helvetica,sans-Serif"
         font-weight="bold"
         font-size="14.00"
         id="text5">Y.Doc Instance</text>
      <polygon
         fill="none"
         stroke="black"
         points="486.88,-657.75 486.88,-711.25 631.12,-711.25 631.12,-657.75 486.88,-657.75"
         id="polygon6" />
      <text
         xml:space="preserve"
         text-anchor="start"
         x="532.38"
         y="-686.95"
         font-family="Helvetica,sans-Serif"
         font-size="14.00"
         id="text6">GUID: ...</text>
      <text
         xml:space="preserve"
         text-anchor="start"
         x="497.88"
         y="-671.2"
         font-family="Helvetica,sans-Serif"
         font-size="14.00"
         id="text7">ClientIDs: [123, 456]</text>
    </g>
    <!-- ScriptStore -->
    <g
       id="node2"
       class="node">
      <title
         id="title7">ScriptStore</title>
      <polygon
         fill="#ffffff"
         stroke="none"
         points="27.75,-417 27.75,-585.75 314.25,-585.75 314.25,-417 27.75,-417"
         id="polygon7" />
      <polygon
         fill="#ffecb3"
         stroke="none"
         points="27.75,-552 27.75,-585.75 314.25,-585.75 314.25,-552 27.75,-552"
         id="polygon8" />
      <polygon
         fill="none"
         stroke="black"
         points="27.75,-552 27.75,-585.75 314.25,-585.75 314.25,-552 27.75,-552"
         id="polygon9" />
      <text
         xml:space="preserve"
         text-anchor="start"
         x="94.88"
         y="-564.45"
         font-family="Helvetica,sans-Serif"
         font-weight="bold"
         font-size="14.00"
         id="text9">Script Content (Y.Array)</text>
      <polygon
         fill="#eceff1"
         stroke="none"
         points="27.75,-518.25 27.75,-552 65.25,-552 65.25,-518.25 27.75,-518.25"
         id="polygon10" />
      <polygon
         fill="none"
         stroke="black"
         points="27.75,-518.25 27.75,-552 65.25,-552 65.25,-518.25 27.75,-518.25"
         id="polygon11" />
      <text
         xml:space="preserve"
         text-anchor="start"
         x="36.75"
         y="-530.7"
         font-family="Helvetica,sans-Serif"
         font-weight="bold"
         font-size="14.00"
         id="text11">Idx</text>
      <polygon
         fill="#eceff1"
         stroke="none"
         points="65.25,-518.25 65.25,-552 175.5,-552 175.5,-518.25 65.25,-518.25"
         id="polygon12" />
      <polygon
         fill="none"
         stroke="black"
         points="65.25,-518.25 65.25,-552 175.5,-552 175.5,-518.25 65.25,-518.25"
         id="polygon13" />
      <text
         xml:space="preserve"
         text-anchor="start"
         x="105"
         y="-530.7"
         font-family="Helvetica,sans-Serif"
         font-weight="bold"
         font-size="14.00"
         id="text13">Type</text>
      <polygon
         fill="#eceff1"
         stroke="none"
         points="175.5,-518.25 175.5,-552 314.25,-552 314.25,-518.25 175.5,-518.25"
         id="polygon14" />
      <polygon
         fill="none"
         stroke="black"
         points="175.5,-518.25 175.5,-552 314.25,-552 314.25,-518.25 175.5,-518.25"
         id="polygon15" />
      <text
         xml:space="preserve"
         text-anchor="start"
         x="192.75"
         y="-530.7"
         font-family="Helvetica,sans-Serif"
         font-weight="bold"
         font-size="14.00"
         id="text15">Content Snippet</text>
      <polygon
         fill="none"
         stroke="black"
         points="27.75,-484.5 27.75,-518.25 65.25,-518.25 65.25,-484.5 27.75,-484.5"
         id="polygon16" />
      <text
         xml:space="preserve"
         text-anchor="start"
         x="42.75"
         y="-495.95"
         font-family="Helvetica,sans-Serif"
         font-size="14.00"
         id="text16">0</text>
      <polygon
         fill="none"
         stroke="black"
         points="65.25,-484.5 65.25,-518.25 175.5,-518.25 175.5,-484.5 65.25,-484.5"
         id="polygon17" />
      <text
         xml:space="preserve"
         text-anchor="start"
         x="74.25"
         y="-495.95"
         font-family="Helvetica,sans-Serif"
         font-size="14.00"
         id="text17">Scene Heading</text>
      <polygon
         fill="none"
         stroke="black"
         points="175.5,-484.5 175.5,-518.25 314.25,-518.25 314.25,-484.5 175.5,-484.5"
         id="polygon18" />
      <text
         xml:space="preserve"
         text-anchor="start"
         x="184.5"
         y="-495.95"
         font-family="Helvetica,sans-Serif"
         font-size="14.00"
         id="text18">INT. TUNNEL - DAY</text>
      <polygon
         fill="none"
         stroke="black"
         points="27.75,-450.75 27.75,-484.5 65.25,-484.5 65.25,-450.75 27.75,-450.75"
         id="polygon19" />
      <text
         xml:space="preserve"
         text-anchor="start"
         x="42.75"
         y="-462.2"
         font-family="Helvetica,sans-Serif"
         font-size="14.00"
         id="text19">1</text>
      <polygon
         fill="none"
         stroke="black"
         points="65.25,-450.75 65.25,-484.5 175.5,-484.5 175.5,-450.75 65.25,-450.75"
         id="polygon20" />
      <text
         xml:space="preserve"
         text-anchor="start"
         x="74.25"
         y="-462.2"
         font-family="Helvetica,sans-Serif"
         font-size="14.00"
         id="text20">Action</text>
      <polygon
         fill="none"
         stroke="black"
         points="175.5,-450.75 175.5,-484.5 314.25,-484.5 314.25,-450.75 175.5,-450.75"
         id="polygon21" />
      <text
         xml:space="preserve"
         text-anchor="start"
         x="184.5"
         y="-462.2"
         font-family="Helvetica,sans-Serif"
         font-size="14.00"
         id="text21">The lights flicker...</text>
      <polygon
         fill="none"
         stroke="black"
         points="27.75,-417 27.75,-450.75 65.25,-450.75 65.25,-417 27.75,-417"
         id="polygon22" />
      <text
         xml:space="preserve"
         text-anchor="start"
         x="42.75"
         y="-428.45"
         font-family="Helvetica,sans-Serif"
         font-size="14.00"
         id="text22">2</text>
      <polygon
         fill="none"
         stroke="black"
         points="65.25,-417 65.25,-450.75 175.5,-450.75 175.5,-417 65.25,-417"
         id="polygon23" />
      <text
         xml:space="preserve"
         text-anchor="start"
         x="74.25"
         y="-428.45"
         font-family="Helvetica,sans-Serif"
         font-size="14.00"
         id="text23">Dialogue</text>
      <polygon
         fill="none"
         stroke="black"
         points="175.5,-417 175.5,-450.75 314.25,-450.75 314.25,-417 175.5,-417"
         id="polygon24" />
      <text
         xml:space="preserve"
         text-anchor="start"
         x="184.5"
         y="-428.45"
         font-family="Helvetica,sans-Serif"
         font-size="14.00"
         id="text24">I can see it now.</text>
    </g>
    <!-- YDoc&#45;&gt;ScriptStore -->
    <g
       id="edge1"
       class="edge">
      <title
         id="title24">YDoc:root-&gt;ScriptStore:head</title>
      <path
         fill="none"
         stroke="#555555"
         stroke-width="1.2"
         d="M 506.54,-657.55679 V -577.75 H 327.05"
         id="path24"
         sodipodi:nodetypes="ccc" />
      <polygon
         fill="#555555"
         stroke="#555555"
         stroke-width="1.2"
         points="326.87,-577.75 320.87,-581.75 314.87,-577.75 320.87,-573.75 326.87,-577.75"
         id="polygon25" />
    </g>
    <!-- AIStore -->
    <g
       id="node3"
       class="node">
      <title
         id="title25">AIStore</title>
      <polygon
         fill="#e1bee7"
         stroke="none"
         points="350.12,-433.88 350.12,-568.88 545.88,-568.88 545.88,-433.88 350.12,-433.88"
         id="polygon26" />
      <polygon
         fill="#ba68c8"
         stroke="none"
         points="350.12,-535.12 350.12,-568.88 545.88,-568.88 545.88,-535.12 350.12,-535.12"
         id="polygon27" />
      <polygon
         fill="none"
         stroke="black"
         points="350.12,-535.12 350.12,-568.88 545.88,-568.88 545.88,-535.12 350.12,-535.12"
         id="polygon28" />
      <text
         xml:space="preserve"
         text-anchor="start"
         x="386.12"
         y="-547.58"
         font-family="Helvetica,sans-Serif"
         font-weight="bold"
         font-size="14.00"
         id="text28">AI Analysis (Y.Map)</text>
      <polygon
         fill="#f3e5f5"
         stroke="none"
         points="350.12,-501.38 350.12,-535.12 442.38,-535.12 442.38,-501.38 350.12,-501.38"
         id="polygon29" />
      <polygon
         fill="none"
         stroke="black"
         points="350.12,-501.38 350.12,-535.12 442.38,-535.12 442.38,-501.38 350.12,-501.38"
         id="polygon30" />
      <text
         xml:space="preserve"
         text-anchor="start"
         x="383.88"
         y="-513.83"
         font-family="Helvetica,sans-Serif"
         font-weight="bold"
         font-size="14.00"
         id="text30">Key</text>
      <polygon
         fill="#f3e5f5"
         stroke="none"
         points="442.38,-501.38 442.38,-535.12 545.88,-535.12 545.88,-501.38 442.38,-501.38"
         id="polygon31" />
      <polygon
         fill="none"
         stroke="black"
         points="442.38,-501.38 442.38,-535.12 545.88,-535.12 545.88,-501.38 442.38,-501.38"
         id="polygon32" />
      <text
         xml:space="preserve"
         text-anchor="start"
         x="476.5"
         y="-513.83"
         font-family="Helvetica,sans-Serif"
         font-weight="bold"
         font-size="14.00"
         id="text32">Value</text>
      <polygon
         fill="none"
         stroke="black"
         points="350.12,-467.62 350.12,-501.38 442.38,-501.38 442.38,-467.62 350.12,-467.62"
         id="polygon33" />
      <text
         xml:space="preserve"
         text-anchor="start"
         x="359.12"
         y="-479.07"
         font-family="Helvetica,sans-Serif"
         font-size="14.00"
         id="text33">sentiment_0</text>
      <polygon
         fill="none"
         stroke="black"
         points="442.38,-467.62 442.38,-501.38 545.88,-501.38 545.88,-467.62 442.38,-467.62"
         id="polygon34" />
      <text
         xml:space="preserve"
         text-anchor="start"
         x="451.38"
         y="-479.07"
         font-family="Helvetica,sans-Serif"
         font-size="14.00"
         id="text34">0.8 (Joy)</text>
      <polygon
         fill="none"
         stroke="black"
         points="350.12,-433.88 350.12,-467.62 442.38,-467.62 442.38,-433.88 350.12,-433.88"
         id="polygon35" />
      <text
         xml:space="preserve"
         text-anchor="start"
         x="359.12"
         y="-445.32"
         font-family="Helvetica,sans-Serif"
         font-size="14.00"
         id="text35">ner_entities</text>
      <polygon
         fill="none"
         stroke="black"
         points="442.38,-433.88 442.38,-467.62 545.88,-467.62 545.88,-433.88 442.38,-433.88"
         id="polygon36" />
      <text
         xml:space="preserve"
         text-anchor="start"
         x="451.38"
         y="-445.32"
         font-family="Helvetica,sans-Serif"
         font-size="14.00"
         id="text36">[Tunnel, Light]</text>
    </g>
    <!-- YDoc&#45;&gt;AIStore -->
    <g
       id="edge2"
       class="edge">
      <title
         id="title36">YDoc:root-&gt;AIStore:head</title>
      <path
         fill="none"
         stroke="#555555"
         stroke-width="1.2"
         d="m 526.21,-658.01803 0,76.10803"
         id="path36"
         sodipodi:nodetypes="cc" />
      <polygon
         fill="#555555"
         stroke="#555555"
         stroke-width="1.2"
         points="526.21,-581.73 522.21,-575.73 526.21,-569.73 530.21,-575.73 526.21,-581.73"
         id="polygon37" />
    </g>
    <!-- MetaStore -->
    <g
       id="node4"
       class="node">
      <title
         id="title37">MetaStore</title>
      <polygon
         fill="#b2ebf2"
         stroke="none"
         points="582.25,-433.88 582.25,-568.88 757.75,-568.88 757.75,-433.88 582.25,-433.88"
         id="polygon38" />
      <polygon
         fill="#4dd0e1"
         stroke="none"
         points="582.25,-535.12 582.25,-568.88 757.75,-568.88 757.75,-535.12 582.25,-535.12"
         id="polygon39" />
      <polygon
         fill="none"
         stroke="black"
         points="582.25,-535.12 582.25,-568.88 757.75,-568.88 757.75,-535.12 582.25,-535.12"
         id="polygon40" />
      <text
         xml:space="preserve"
         text-anchor="start"
         x="603.62"
         y="-547.58"
         font-family="Helvetica,sans-Serif"
         font-weight="bold"
         font-size="14.00"
         id="text40">Config Store (Y.Map)</text>
      <polygon
         fill="#e0f7fa"
         stroke="none"
         points="582.25,-501.38 582.25,-535.12 659.5,-535.12 659.5,-501.38 582.25,-501.38"
         id="polygon41" />
      <polygon
         fill="none"
         stroke="black"
         points="582.25,-501.38 582.25,-535.12 659.5,-535.12 659.5,-501.38 582.25,-501.38"
         id="polygon42" />
      <text
         xml:space="preserve"
         text-anchor="start"
         x="608.5"
         y="-513.83"
         font-family="Helvetica,sans-Serif"
         font-weight="bold"
         font-size="14.00"
         id="text42">Key</text>
      <polygon
         fill="#e0f7fa"
         stroke="none"
         points="659.5,-501.38 659.5,-535.12 757.75,-535.12 757.75,-501.38 659.5,-501.38"
         id="polygon43" />
      <polygon
         fill="none"
         stroke="black"
         points="659.5,-501.38 659.5,-535.12 757.75,-535.12 757.75,-501.38 659.5,-501.38"
         id="polygon44" />
      <text
         xml:space="preserve"
         text-anchor="start"
         x="691"
         y="-513.83"
         font-family="Helvetica,sans-Serif"
         font-weight="bold"
         font-size="14.00"
         id="text44">Value</text>
      <polygon
         fill="none"
         stroke="black"
         points="582.25,-467.62 582.25,-501.38 659.5,-501.38 659.5,-467.62 582.25,-467.62"
         id="polygon45" />
      <text
         xml:space="preserve"
         text-anchor="start"
         x="591.25"
         y="-479.07"
         font-family="Helvetica,sans-Serif"
         font-size="14.00"
         id="text45">vis_mode</text>
      <polygon
         fill="none"
         stroke="black"
         points="659.5,-467.62 659.5,-501.38 757.75,-501.38 757.75,-467.62 659.5,-467.62"
         id="polygon46" />
      <text
         xml:space="preserve"
         text-anchor="start"
         x="668.5"
         y="-479.07"
         font-family="Helvetica,sans-Serif"
         font-size="14.00"
         id="text46">'wireframe'</text>
      <polygon
         fill="none"
         stroke="black"
         points="582.25,-433.88 582.25,-467.62 659.5,-467.62 659.5,-433.88 582.25,-433.88"
         id="polygon47" />
      <text
         xml:space="preserve"
         text-anchor="start"
         x="591.25"
         y="-445.32"
         font-family="Helvetica,sans-Serif"
         font-size="14.00"
         id="text47">script_fmt</text>
      <polygon
         fill="none"
         stroke="black"
         points="659.5,-433.88 659.5,-467.62 757.75,-467.62 757.75,-433.88 659.5,-433.88"
         id="polygon48" />
      <text
         xml:space="preserve"
         text-anchor="start"
         x="668.5"
         y="-445.32"
         font-family="Helvetica,sans-Serif"
         font-size="14.00"
         id="text48">'standard_us'</text>
    </g>
    <!-- YDoc&#45;&gt;MetaStore -->
    <g
       id="edge3"
       class="edge">
      <title
         id="title48">YDoc:root-&gt;MetaStore:head</title>
      <path
         fill="none"
         stroke="#555555"
         stroke-width="1.2"
         d="m 606.69,-657.76741 0,75.85741"
         id="path48"
         sodipodi:nodetypes="cc" />
      <polygon
         fill="#555555"
         stroke="#555555"
         stroke-width="1.2"
         points="606.69,-581.73 602.69,-575.73 606.69,-569.73 610.69,-575.73 606.69,-581.73"
         id="polygon49" />
    </g>
    <!-- HP_Server -->
    <g
       id="node5"
       class="node">
      <title
         id="title49">HP_Server</title>
      <polygon
         fill="#c8e6c9"
         stroke="none"
         points="738.62,-231.75 738.62,-345 887.38,-345 887.38,-231.75 738.62,-231.75"
         id="polygon50" />
      <polygon
         fill="none"
         stroke="black"
         points="738.62,-307.25 738.62,-345 887.38,-345 887.38,-307.25 738.62,-307.25"
         id="polygon51" />
      <text
         xml:space="preserve"
         text-anchor="start"
         x="749.62"
         y="-321.7"
         font-family="Helvetica,sans-Serif"
         font-weight="bold"
         font-size="14.00"
         id="text51">Hocuspocus Server</text>
      <polygon
         fill="none"
         stroke="black"
         points="738.62,-269.5 738.62,-307.25 887.38,-307.25 887.38,-269.5 738.62,-269.5"
         id="polygon52" />
      <text
         xml:space="preserve"
         text-anchor="start"
         x="753"
         y="-282.95"
         font-family="Helvetica,sans-Serif"
         font-size="14.00"
         id="text52">WebSocket Handler</text>
      <polygon
         fill="none"
         stroke="black"
         points="738.62,-231.75 738.62,-269.5 887.38,-269.5 887.38,-231.75 738.62,-231.75"
         id="polygon53" />
      <text
         xml:space="preserve"
         text-anchor="start"
         x="752.62"
         y="-245.2"
         font-family="Helvetica,sans-Serif"
         font-size="14.00"
         id="text53">Database Extension</text>
    </g>
    <!-- YDoc&#45;&gt;HP_Server -->
    <g
       id="edge4"
       class="edge">
      <title
         id="title53">YDoc:s-&gt;HP_Server:ws</title>
      <path
         fill="none"
         stroke="#555555"
         stroke-width="2"
         d="m 564.06,-657.98 v 369.23 l 145.90385,0"
         id="path53"
         sodipodi:nodetypes="ccc" />
      <polygon
         fill="#555555"
         stroke="#555555"
         stroke-width="2"
         points="809.93,-288.75 799.93,-285.25 799.93,-292.25 "
         id="polygon54"
         transform="translate(-92.979864)" />
      <text
         xml:space="preserve"
         text-anchor="middle"
         x="622.03302"
         y="-293.47388"
         font-family="Helvetica, sans-Serif"
         font-size="9px"
         id="text54">Binary Diff Sync</text>
    </g>
    <!-- MongoDB -->
    <g
       id="node6"
       class="node">
      <title
         id="title54">MongoDB</title>
      <path
         fill="#cfd8dc"
         stroke="#546e7a"
         d="M860,-149.93C860,-155.35 838.93,-159.75 813,-159.75 787.07,-159.75 766,-155.35 766,-149.93 766,-149.93 766,-61.57 766,-61.57 766,-56.15 787.07,-51.75 813,-51.75 838.93,-51.75 860,-56.15 860,-61.57 860,-61.57 860,-149.93 860,-149.93"
         id="path54" />
      <path
         fill="none"
         stroke="#546e7a"
         d="M860,-149.93C860,-144.51 838.93,-140.11 813,-140.11 787.07,-140.11 766,-144.51 766,-149.93"
         id="path55" />
      <text
         xml:space="preserve"
         text-anchor="middle"
         x="813"
         y="-108.2"
         font-family="Helvetica,sans-Serif"
         font-size="14.00"
         id="text55">MongoDB</text>
      <text
         xml:space="preserve"
         text-anchor="middle"
         x="813"
         y="-92.45"
         font-family="Helvetica,sans-Serif"
         font-size="14.00"
         id="text56">(Binary Blob)</text>
    </g>
    <!-- HP_Server&#45;&gt;MongoDB -->
    <g
       id="edge5"
       class="edge">
      <title
         id="title56">HP_Server:db-&gt;MongoDB</title>
      <path
         fill="none"
         stroke="#555555"
         d="M813,-231.98C813,-231.98 813,-171.72 813,-171.72"
         id="path56" />
      <polygon
         fill="#555555"
         stroke="#555555"
         points="816.5,-171.72 813,-161.72 809.5,-171.72 816.5,-171.72"
         id="polygon56" />
      <text
         xml:space="preserve"
         text-anchor="middle"
         x="777.38"
         y="-203.8"
         font-family="Helvetica,sans-Serif"
         font-size="9.00"
         id="text57">Debounced Save</text>
    </g>
  </g>
</svg>
