<?xml version="1.0" encoding="UTF-8" standalone="no"?>
<!-- Generated by graphviz version 14.1.1 (20251213.1925)
 -->

<!-- Title: TunnelOfConsciousness Pages: 1 -->

<svg
   width="910pt"
   height="538pt"
   viewBox="0.00 0.00 910.00 538.00"
   version="1.1"
   id="svg34"
   sodipodi:docname="system-architecture.svg"
   inkscape:version="1.4.2 (ebf0e94, 2025-05-08)"
   xmlns:inkscape="http://www.inkscape.org/namespaces/inkscape"
   xmlns:sodipodi="http://sodipodi.sourceforge.net/DTD/sodipodi-0.dtd"
   xmlns="http://www.w3.org/2000/svg"
   xmlns:svg="http://www.w3.org/2000/svg">
  <defs
     id="defs34" />
  <sodipodi:namedview
     id="namedview34"
     pagecolor="#505050"
     bordercolor="#eeeeee"
     borderopacity="1"
     inkscape:showpageshadow="0"
     inkscape:pageopacity="0"
     inkscape:pagecheckerboard="0"
     inkscape:deskcolor="#505050"
     inkscape:document-units="pt"
     inkscape:zoom="0.79549513"
     inkscape:cx="521.05913"
     inkscape:cy="194.21866"
     inkscape:window-width="1920"
     inkscape:window-height="1009"
     inkscape:window-x="-8"
     inkscape:window-y="-8"
     inkscape:window-maximized="1"
     inkscape:current-layer="graph0" />
  <g
     id="graph0"
     class="graph"
     transform="scale(1 1) rotate(0) translate(4 533.75)">
    <title
       id="title1">TunnelOfConsciousness</title>
    <polygon
       fill="white"
       stroke="none"
       points="-4,4 -4,-533.75 905.8,-533.75 905.8,4 -4,4"
       id="polygon1"
       inkscape:export-filename="system-architecture.png"
       inkscape:export-xdpi="96"
       inkscape:export-ydpi="96" />
    <text
       xml:space="preserve"
       text-anchor="middle"
       x="450.9"
       y="-512.45"
       font-family="Helvetica,sans-Serif"
       font-size="14.00"
       id="text1">System Architecture: Tunnel of Consciousness</text>
    <g
       id="clust1"
       class="cluster">
      <title
         id="title2">cluster_frontend</title>
      <polygon
         fill="#e3f2fd"
         stroke="#e3f2fd"
         points="8,-164 8,-442 242.6,-442 242.6,-164 8,-164"
         id="polygon2" />
      <text
         xml:space="preserve"
         text-anchor="middle"
         x="125.3"
         y="-424.7"
         font-family="Helvetica,sans-Serif"
         font-size="14.00"
         id="text2">Frontend Layer</text>
    </g>
    <g
       id="clust4"
       class="cluster">
      <title
         id="title3">cluster_backend</title>
      <polygon
         fill="#fff3e0"
         stroke="#fff3e0"
         points="312.6,-107 312.6,-498 570.45,-498 570.45,-107 312.6,-107"
         id="polygon3" />
      <text
         xml:space="preserve"
         text-anchor="middle"
         x="441.52"
         y="-480.7"
         font-family="Helvetica,sans-Serif"
         font-size="14.00"
         id="text3">Backend Layer</text>
    </g>
    <g
       id="clust6"
       class="cluster">
      <title
         id="title4">cluster_inference</title>
      <polygon
         fill="#e8f5e9"
         stroke="#e8f5e9"
         points="323.1,-8 323.1,-88 893.8,-88 893.8,-8 323.1,-8"
         id="polygon4" />
      <text
         xml:space="preserve"
         text-anchor="middle"
         x="608.45"
         y="-70.7"
         font-family="Helvetica,sans-Serif"
         font-size="14.00"
         id="text4">Inference Layer</text>
    </g>
    <!-- React -->
    <g
       id="node1"
       class="node">
      <title
         id="title5">React</title>
      <path
         fill="#bbdefb"
         stroke="#64b5f6"
         d="M65.05,-212.4C65.05,-212.4 34,-212.4 34,-212.4 28,-212.4 22,-206.4 22,-200.4 22,-200.4 22,-183.6 22,-183.6 22,-177.6 28,-171.6 34,-171.6 34,-171.6 65.05,-171.6 65.05,-171.6 71.05,-171.6 77.05,-177.6 77.05,-183.6 77.05,-183.6 77.05,-200.4 77.05,-200.4 77.05,-206.4 71.05,-212.4 65.05,-212.4"
         id="path5" />
      <text
         xml:space="preserve"
         text-anchor="middle"
         x="49.52"
         y="-188.5"
         font-family="Helvetica,sans-Serif"
         font-size="10.00"
         id="text5">React</text>
    </g>
    <!-- ThreeJS -->
    <g
       id="node4"
       class="node">
      <title
         id="title6">ThreeJS</title>
      <path
         fill="#bbdefb"
         stroke="#64b5f6"
         d="M222.6,-212.4C222.6,-212.4 181.05,-212.4 181.05,-212.4 175.05,-212.4 169.05,-206.4 169.05,-200.4 169.05,-200.4 169.05,-183.6 169.05,-183.6 169.05,-177.6 175.05,-171.6 181.05,-171.6 181.05,-171.6 222.6,-171.6 222.6,-171.6 228.6,-171.6 234.6,-177.6 234.6,-183.6 234.6,-183.6 234.6,-200.4 234.6,-200.4 234.6,-206.4 228.6,-212.4 222.6,-212.4"
         id="path6" />
      <text
         xml:space="preserve"
         text-anchor="middle"
         x="201.82"
         y="-188.5"
         font-family="Helvetica,sans-Serif"
         font-size="10.00"
         id="text6">ThreeJS</text>
    </g>
    <!-- React&#45;&gt;ThreeJS -->
    <g
       id="edge1"
       class="edge">
      <title
         id="title7">React-&gt;ThreeJS</title>
      <path
         fill="none"
         stroke="#555555"
         stroke-dasharray="1,5"
         d="M77.46,-181.8C103.22,-181.8 141.49,-181.8 168.77,-181.8"
         id="path7" />
    </g>
    <!-- Tiptap -->
    <g
       id="node5"
       class="node">
      <title
         id="title8">Tiptap</title>
      <path
         fill="#bbdefb"
         stroke="#64b5f6"
         d="M217.72,-311.4C217.72,-311.4 185.92,-311.4 185.92,-311.4 179.92,-311.4 173.92,-305.4 173.92,-299.4 173.92,-299.4 173.92,-282.6 173.92,-282.6 173.92,-276.6 179.92,-270.6 185.92,-270.6 185.92,-270.6 217.72,-270.6 217.72,-270.6 223.72,-270.6 229.72,-276.6 229.72,-282.6 229.72,-282.6 229.72,-299.4 229.72,-299.4 229.72,-305.4 223.72,-311.4 217.72,-311.4"
         id="path8" />
      <text
         xml:space="preserve"
         text-anchor="middle"
         x="201.82"
         y="-287.5"
         font-family="Helvetica,sans-Serif"
         font-size="10.00"
         id="text8">Tiptap</text>
    </g>
    <!-- React&#45;&gt;Tiptap -->
    <g
       id="edge2"
       class="edge">
      <title
         id="title9">React-&gt;Tiptap</title>
      <path
         fill="none"
         stroke="#555555"
         stroke-dasharray="1,5"
         d="M77.41,-192C104.25,-192 140.8,-192 140.8,-192 140.8,-192 140.8,-291 140.8,-291 140.8,-291 157.52,-291 173.46,-291"
         id="path9" />
    </g>
    <!-- MongoDB -->
    <g
       id="node7"
       class="node">
      <title
         id="title10">MongoDB</title>
      <path
         fill="#ffcc80"
         stroke="#ffb74d"
         d="M562.45,-362.95C562.45,-365.76 546.25,-368.05 526.3,-368.05 506.35,-368.05 490.15,-365.76 490.15,-362.95 490.15,-362.95 490.15,-317.05 490.15,-317.05 490.15,-314.24 506.35,-311.95 526.3,-311.95 546.25,-311.95 562.45,-314.24 562.45,-317.05 562.45,-317.05 562.45,-362.95 562.45,-362.95"
         id="path10" />
      <path
         fill="none"
         stroke="#ffb74d"
         d="M562.45,-362.95C562.45,-360.14 546.25,-357.85 526.3,-357.85 506.35,-357.85 490.15,-360.14 490.15,-362.95"
         id="path11" />
      <text
         xml:space="preserve"
         text-anchor="middle"
         x="526.3"
         y="-336.5"
         font-family="Helvetica,sans-Serif"
         font-size="10.00"
         id="text11">MongoDB</text>
    </g>
    <!-- React&#45;&gt;MongoDB -->
    <!-- Express -->
    <g
       id="node8"
       class="node">
      <title
         id="title11">Express</title>
      <path
         fill="#ffe0b2"
         stroke="#ffb74d"
         d="M382.77,-155.4C382.77,-155.4 341.97,-155.4 341.97,-155.4 335.97,-155.4 329.97,-149.4 329.97,-143.4 329.97,-143.4 329.97,-126.6 329.97,-126.6 329.97,-120.6 335.97,-114.6 341.97,-114.6 341.97,-114.6 382.77,-114.6 382.77,-114.6 388.77,-114.6 394.77,-120.6 394.77,-126.6 394.77,-126.6 394.77,-143.4 394.77,-143.4 394.77,-149.4 388.77,-155.4 382.77,-155.4"
         id="path12" />
      <text
         xml:space="preserve"
         text-anchor="middle"
         x="362.37"
         y="-131.5"
         font-family="Helvetica,sans-Serif"
         font-size="10.00"
         id="text12">Express</text>
    </g>
    <!-- React&#45;&gt;Express -->
    <g
       id="edge9"
       class="edge">
      <title
         id="title12">React-&gt;Express</title>
      <path
         fill="none"
         stroke="#555555"
         d="M49.8,-171.42C49.8,-155.09 49.8,-135 49.8,-135 49.8,-135 318,-135 318,-135"
         id="path13" />
      <polygon
         fill="#555555"
         stroke="#555555"
         points="318,-138.5 328,-135 318,-131.5 318,-138.5"
         id="polygon13" />
      <text
         xml:space="preserve"
         text-anchor="middle"
         x="140.94"
         y="-126.45"
         font-family="Helvetica,sans-Serif"
         font-size="9.00"
         id="text13">HTTP/REST</text>
    </g>
    <!-- Antd -->
    <g
       id="node2"
       class="node">
      <title
         id="title13">Antd</title>
      <path
         fill="#bbdefb"
         stroke="#64b5f6"
         d="M64.52,-311.4C64.52,-311.4 34.52,-311.4 34.52,-311.4 28.52,-311.4 22.52,-305.4 22.52,-299.4 22.52,-299.4 22.52,-282.6 22.52,-282.6 22.52,-276.6 28.52,-270.6 34.52,-270.6 34.52,-270.6 64.52,-270.6 64.52,-270.6 70.52,-270.6 76.52,-276.6 76.52,-282.6 76.52,-282.6 76.52,-299.4 76.52,-299.4 76.52,-305.4 70.52,-311.4 64.52,-311.4"
         id="path14" />
      <text
         xml:space="preserve"
         text-anchor="middle"
         x="49.52"
         y="-287.5"
         font-family="Helvetica,sans-Serif"
         font-size="10.00"
         id="text14">Antd</text>
    </g>
    <!-- RCDock -->
    <g
       id="node3"
       class="node">
      <title
         id="title14">RCDock</title>
      <path
         fill="#bbdefb"
         stroke="#64b5f6"
         d="M71.05,-410.4C71.05,-410.4 28,-410.4 28,-410.4 22,-410.4 16,-404.4 16,-398.4 16,-398.4 16,-381.6 16,-381.6 16,-375.6 22,-369.6 28,-369.6 28,-369.6 71.05,-369.6 71.05,-369.6 77.05,-369.6 83.05,-375.6 83.05,-381.6 83.05,-381.6 83.05,-398.4 83.05,-398.4 83.05,-404.4 77.05,-410.4 71.05,-410.4"
         id="path15" />
      <text
         xml:space="preserve"
         text-anchor="middle"
         x="49.52"
         y="-386.5"
         font-family="Helvetica,sans-Serif"
         font-size="10.00"
         id="text15">RCDock</text>
    </g>
    <!-- Yjs -->
    <g
       id="node6"
       class="node">
      <title
         id="title15">Yjs</title>
      <path
         fill="#bbdefb"
         stroke="#64b5f6"
         d="M216.82,-410.4C216.82,-410.4 186.82,-410.4 186.82,-410.4 180.82,-410.4 174.82,-404.4 174.82,-398.4 174.82,-398.4 174.82,-381.6 174.82,-381.6 174.82,-375.6 180.82,-369.6 186.82,-369.6 186.82,-369.6 216.82,-369.6 216.82,-369.6 222.82,-369.6 228.82,-375.6 228.82,-381.6 228.82,-381.6 228.82,-398.4 228.82,-398.4 228.82,-404.4 222.82,-410.4 216.82,-410.4"
         id="path16" />
      <text
         xml:space="preserve"
         text-anchor="middle"
         x="201.82"
         y="-386.5"
         font-family="Helvetica,sans-Serif"
         font-size="10.00"
         id="text16">Yjs</text>
    </g>
    <!-- Hocuspocus -->
    <g
       id="node9"
       class="node">
      <title
         id="title16">Hocuspocus</title>
      <path
         fill="#ffe0b2"
         stroke="#ffb74d"
         d="M392.15,-410.4C392.15,-410.4 332.6,-410.4 332.6,-410.4 326.6,-410.4 320.6,-404.4 320.6,-398.4 320.6,-398.4 320.6,-381.6 320.6,-381.6 320.6,-375.6 326.6,-369.6 332.6,-369.6 332.6,-369.6 392.15,-369.6 392.15,-369.6 398.15,-369.6 404.15,-375.6 404.15,-381.6 404.15,-381.6 404.15,-398.4 404.15,-398.4 404.15,-404.4 398.15,-410.4 392.15,-410.4"
         id="path17" />
      <text
         xml:space="preserve"
         text-anchor="middle"
         x="362.37"
         y="-386.5"
         font-family="Helvetica,sans-Serif"
         font-size="10.00"
         id="text17">Hocuspocus</text>
    </g>
    <!-- Yjs&#45;&gt;Hocuspocus -->
    <g
       id="edge10"
       class="edge">
      <title
         id="title17">Yjs-&gt;Hocuspocus</title>
      <path
         fill="none"
         stroke="#555555"
         d="M229.06,-390C229.06,-390 308.67,-390 308.67,-390"
         id="path18" />
      <polygon
         fill="#555555"
         stroke="#555555"
         points="308.67,-393.5 318.67,-390 308.67,-386.5 308.67,-393.5"
         id="polygon18" />
      <text
         xml:space="preserve"
         text-anchor="middle"
         x="277.45334"
         y="-380.78336"
         font-family="Helvetica, sans-Serif"
         font-size="9px"
         id="text18">WebSocket</text>
    </g>
    <!-- Express&#45;&gt;MongoDB -->
    <g
       id="edge11"
       class="edge">
      <title
         id="title18">Express-&gt;MongoDB</title>
      <path
         fill="none"
         stroke="#555555"
         d="M351.8,-155.57C351.8,-205.8 351.8,-330.65 351.8,-330.65 351.8,-330.65 478.21,-330.65 478.21,-330.65"
         id="path19" />
      <polygon
         fill="#555555"
         stroke="#555555"
         points="478.21,-334.15 488.21,-330.65 478.21,-327.15 478.21,-334.15"
         id="polygon19" />
      <text
         xml:space="preserve"
         text-anchor="middle"
         x="407.58667"
         y="-333.09335"
         font-family="Helvetica, sans-Serif"
         font-size="9px"
         id="text19">Read/Write</text>
    </g>
    <!-- JWT -->
    <g
       id="node10"
       class="node">
      <title
         id="title19">JWT</title>
      <path
         fill="#ffe0b2"
         stroke="#ffb74d"
         d="M541.3,-254.4C541.3,-254.4 511.3,-254.4 511.3,-254.4 505.3,-254.4 499.3,-248.4 499.3,-242.4 499.3,-242.4 499.3,-225.6 499.3,-225.6 499.3,-219.6 505.3,-213.6 511.3,-213.6 511.3,-213.6 541.3,-213.6 541.3,-213.6 547.3,-213.6 553.3,-219.6 553.3,-225.6 553.3,-225.6 553.3,-242.4 553.3,-242.4 553.3,-248.4 547.3,-254.4 541.3,-254.4"
         id="path20" />
      <text
         xml:space="preserve"
         text-anchor="middle"
         x="526.3"
         y="-230.5"
         font-family="Helvetica,sans-Serif"
         font-size="10.00"
         id="text20">JWT</text>
    </g>
    <!-- Express&#45;&gt;JWT -->
    <g
       id="edge3"
       class="edge">
      <title
         id="title20">Express-&gt;JWT</title>
      <path
         fill="none"
         stroke="#555555"
         stroke-dasharray="1,5"
         d="M372.8,-155.51C372.8,-184.51 372.8,-234 372.8,-234 372.8,-234 454.71,-234 498.86,-234"
         id="path21" />
    </g>
    <!-- Cors -->
    <g
       id="node11"
       class="node">
      <title
         id="title21">Cors</title>
      <path
         fill="#ffe0b2"
         stroke="#ffb74d"
         d="M541.3,-155.4C541.3,-155.4 511.3,-155.4 511.3,-155.4 505.3,-155.4 499.3,-149.4 499.3,-143.4 499.3,-143.4 499.3,-126.6 499.3,-126.6 499.3,-120.6 505.3,-114.6 511.3,-114.6 511.3,-114.6 541.3,-114.6 541.3,-114.6 547.3,-114.6 553.3,-120.6 553.3,-126.6 553.3,-126.6 553.3,-143.4 553.3,-143.4 553.3,-149.4 547.3,-155.4 541.3,-155.4"
         id="path22" />
      <text
         xml:space="preserve"
         text-anchor="middle"
         x="526.3"
         y="-131.5"
         font-family="Helvetica,sans-Serif"
         font-size="10.00"
         id="text22">Cors</text>
    </g>
    <!-- Express&#45;&gt;Cors -->
    <g
       id="edge4"
       class="edge">
      <title
         id="title22">Express-&gt;Cors</title>
      <path
         fill="none"
         stroke="#555555"
         stroke-dasharray="1,5"
         d="M395.15,-141.8C425.61,-141.8 470.45,-141.8 499.01,-141.8"
         id="path23" />
    </g>
    <!-- FastAPI -->
    <g
       id="node13"
       class="node">
      <title
         id="title23">FastAPI</title>
      <path
         fill="#c8e6c9"
         stroke="#81c784"
         d="M546.7,-56.4C546.7,-56.4 505.9,-56.4 505.9,-56.4 499.9,-56.4 493.9,-50.4 493.9,-44.4 493.9,-44.4 493.9,-27.6 493.9,-27.6 493.9,-21.6 499.9,-15.6 505.9,-15.6 505.9,-15.6 546.7,-15.6 546.7,-15.6 552.7,-15.6 558.7,-21.6 558.7,-27.6 558.7,-27.6 558.7,-44.4 558.7,-44.4 558.7,-50.4 552.7,-56.4 546.7,-56.4"
         id="path24" />
      <text
         xml:space="preserve"
         text-anchor="middle"
         x="526.3"
         y="-32.5"
         font-family="Helvetica,sans-Serif"
         font-size="10.00"
         id="text24">FastAPI</text>
    </g>
    <!-- Express&#45;&gt;FastAPI -->
    <g
       id="edge13"
       class="edge">
      <title
         id="title24">Express-&gt;FastAPI</title>
      <path
         fill="none"
         stroke="#555555"
         d="M395.26,-128.2C418.96,-128.2 446.8,-128.2 446.8,-128.2 446.8,-128.2 446.8,-42.8 446.8,-42.8 446.8,-42.8 481.99,-42.8 481.99,-42.8"
         id="path25" />
      <polygon
         fill="#555555"
         stroke="#555555"
         points="481.99,-46.3 491.99,-42.8 481.99,-39.3 481.99,-46.3"
         id="polygon25" />
      <text
         xml:space="preserve"
         text-anchor="middle"
         x="417.92"
         y="-85.13"
         font-family="Helvetica,sans-Serif"
         font-size="9.00"
         id="text25">Inference Req</text>
    </g>
    <!-- Hocuspocus&#45;&gt;MongoDB -->
    <g
       id="edge12"
       class="edge">
      <title
         id="title25">Hocuspocus-&gt;MongoDB</title>
      <path
         fill="none"
         stroke="#555555"
         d="M404.64,-383.2C443.39,-383.2 494.8,-383.2 494.8,-383.2 494.8,-383.2 494.8,-378.13 494.8,-378.13"
         id="path26" />
      <polygon
         fill="#555555"
         stroke="#555555"
         points="498.3,-378.13 494.8,-368.13 491.3,-378.13 498.3,-378.13"
         id="polygon26" />
      <text
         xml:space="preserve"
         text-anchor="middle"
         x="438.25"
         y="-373.31665"
         font-family="Helvetica, sans-Serif"
         font-size="9px"
         id="text26">Persistence</text>
    </g>
    <!-- WS -->
    <g
       id="node12"
       class="node">
      <title
         id="title26">WS</title>
      <path
         fill="#ffe0b2"
         stroke="#ffb74d"
         d="M541.3,-466.4C541.3,-466.4 511.3,-466.4 511.3,-466.4 505.3,-466.4 499.3,-460.4 499.3,-454.4 499.3,-454.4 499.3,-437.6 499.3,-437.6 499.3,-431.6 505.3,-425.6 511.3,-425.6 511.3,-425.6 541.3,-425.6 541.3,-425.6 547.3,-425.6 553.3,-431.6 553.3,-437.6 553.3,-437.6 553.3,-454.4 553.3,-454.4 553.3,-460.4 547.3,-466.4 541.3,-466.4"
         id="path27" />
      <text
         xml:space="preserve"
         text-anchor="middle"
         x="526.3"
         y="-442.5"
         font-family="Helvetica,sans-Serif"
         font-size="10.00"
         id="text27">WS</text>
    </g>
    <!-- Hocuspocus&#45;&gt;WS -->
    <g
       id="edge5"
       class="edge">
      <title
         id="title27">Hocuspocus-&gt;WS</title>
      <path
         fill="none"
         stroke="#555555"
         stroke-dasharray="1,5"
         d="M404.46,-396.8C452.88,-396.8 525.8,-396.8 525.8,-396.8 525.8,-396.8 525.8,-411.73 525.8,-425.13"
         id="path28" />
    </g>
    <!-- PyTorch -->
    <g
       id="node15"
       class="node">
      <title
         id="title28">PyTorch</title>
      <path
         fill="#c8e6c9"
         stroke="#81c784"
         d="M701.25,-56.4C701.25,-56.4 660.45,-56.4 660.45,-56.4 654.45,-56.4 648.45,-50.4 648.45,-44.4 648.45,-44.4 648.45,-27.6 648.45,-27.6 648.45,-21.6 654.45,-15.6 660.45,-15.6 660.45,-15.6 701.25,-15.6 701.25,-15.6 707.25,-15.6 713.25,-21.6 713.25,-27.6 713.25,-27.6 713.25,-44.4 713.25,-44.4 713.25,-50.4 707.25,-56.4 701.25,-56.4"
         id="path29" />
      <text
         xml:space="preserve"
         text-anchor="middle"
         x="680.85"
         y="-32.5"
         font-family="Helvetica,sans-Serif"
         font-size="10.00"
         id="text29">PyTorch</text>
    </g>
    <!-- FastAPI&#45;&gt;PyTorch -->
    <g
       id="edge7"
       class="edge">
      <title
         id="title29">FastAPI-&gt;PyTorch</title>
      <path
         fill="none"
         stroke="#555555"
         d="M559.08,-36C559.08,-36 636.61,-36 636.61,-36"
         id="path30" />
      <polygon
         fill="#555555"
         stroke="#555555"
         points="636.61,-39.5 646.61,-36 636.61,-32.5 636.61,-39.5"
         id="polygon30" />
    </g>
    <!-- Uvicorn -->
    <g
       id="node14"
       class="node">
      <title
         id="title30">Uvicorn</title>
      <path
         fill="#c8e6c9"
         stroke="#81c784"
         d="M381.65,-56.4C381.65,-56.4 343.1,-56.4 343.1,-56.4 337.1,-56.4 331.1,-50.4 331.1,-44.4 331.1,-44.4 331.1,-27.6 331.1,-27.6 331.1,-21.6 337.1,-15.6 343.1,-15.6 343.1,-15.6 381.65,-15.6 381.65,-15.6 387.65,-15.6 393.65,-21.6 393.65,-27.6 393.65,-27.6 393.65,-44.4 393.65,-44.4 393.65,-50.4 387.65,-56.4 381.65,-56.4"
         id="path31" />
      <text
         xml:space="preserve"
         text-anchor="middle"
         x="362.37"
         y="-32.5"
         font-family="Helvetica,sans-Serif"
         font-size="10.00"
         id="text31">Uvicorn</text>
    </g>
    <!-- Uvicorn&#45;&gt;FastAPI -->
    <g
       id="edge6"
       class="edge">
      <title
         id="title31">Uvicorn-&gt;FastAPI</title>
      <path
         fill="none"
         stroke="#555555"
         stroke-dasharray="5,2"
         d="M393.98,-29.2C393.98,-29.2 482.16,-29.2 482.16,-29.2"
         id="path32" />
      <polygon
         fill="#555555"
         stroke="#555555"
         points="482.16,-32.7 492.16,-29.2 482.16,-25.7 482.16,-32.7"
         id="polygon32" />
    </g>
    <!-- Transformers -->
    <g
       id="node16"
       class="node">
      <title
         id="title32">Transformers</title>
      <path
         fill="#c8e6c9"
         stroke="#81c784"
         d="M873.8,-56.4C873.8,-56.4 811.25,-56.4 811.25,-56.4 805.25,-56.4 799.25,-50.4 799.25,-44.4 799.25,-44.4 799.25,-27.6 799.25,-27.6 799.25,-21.6 805.25,-15.6 811.25,-15.6 811.25,-15.6 873.8,-15.6 873.8,-15.6 879.8,-15.6 885.8,-21.6 885.8,-27.6 885.8,-27.6 885.8,-44.4 885.8,-44.4 885.8,-50.4 879.8,-56.4 873.8,-56.4"
         id="path33" />
      <text
         xml:space="preserve"
         text-anchor="middle"
         x="842.52"
         y="-32.5"
         font-family="Helvetica,sans-Serif"
         font-size="10.00"
         id="text33">Transformers</text>
    </g>
    <!-- PyTorch&#45;&gt;Transformers -->
    <g
       id="edge8"
       class="edge">
      <title
         id="title33">PyTorch-&gt;Transformers</title>
      <path
         fill="none"
         stroke="#555555"
         d="M713.57,-36C713.57,-36 787.31,-36 787.31,-36"
         id="path34" />
      <polygon
         fill="#555555"
         stroke="#555555"
         points="787.31,-39.5 797.31,-36 787.31,-32.5 787.31,-39.5"
         id="polygon34" />
    </g>
  </g>
</svg>
