<?xml version="1.0" encoding="UTF-8" standalone="no"?>
<!DOCTYPE svg PUBLIC "-//W3C//DTD SVG 1.1//EN"
 "http://www.w3.org/Graphics/SVG/1.1/DTD/svg11.dtd">
<!-- Generated by graphviz version 14.1.3 (0)
 -->
<!-- Title: TOC_System_Requirements Pages: 1 -->
<svg width="1004pt" height="760pt"
 viewBox="0.00 0.00 1004.00 760.00" xmlns="http://www.w3.org/2000/svg" xmlns:xlink="http://www.w3.org/1999/xlink">
<g id="graph0" class="graph" transform="scale(1 1) rotate(0) translate(4 756.25)">
<title>TOC_System_Requirements</title>
<polygon fill="white" stroke="none" points="-4,4 -4,-756.25 999.5,-756.25 999.5,4 -4,4"/>
<text xml:space="preserve" text-anchor="middle" x="497.75" y="-736.85" font-family="Helvetica,sans-Serif" font-size="12.00">Tunnel of Consciousness &#45; System Requirements Block Diagram</text>
<g id="clust1" class="cluster">
<title>cluster_frontend</title>
<polygon fill="#e3f2fd" stroke="#bbdefb" points="215.96,-228 215.96,-716 432.96,-716 432.96,-228 215.96,-228"/>
<text xml:space="preserve" text-anchor="middle" x="324.46" y="-700.6" font-family="Helvetica,sans-Serif" font-size="12.00">Frontend Requirements (React + Vite)</text>
</g>
<g id="clust2" class="cluster">
<title>cluster_backend</title>
<polygon fill="#fff3e0" stroke="#ffe0b2" points="488.95,-522 488.95,-722 939.34,-722 939.34,-522 488.95,-522"/>
<text xml:space="preserve" text-anchor="middle" x="714.14" y="-706.6" font-family="Helvetica,sans-Serif" font-size="12.00">Backend Requirements (Node.js + Express + Hocuspocus)</text>
</g>
<g id="clust3" class="cluster">
<title>cluster_ai</title>
<polygon fill="#e8f5e9" stroke="#c8e6c9" points="726.75,-126 726.75,-514 964,-514 964,-126 726.75,-126"/>
<text xml:space="preserve" text-anchor="middle" x="845.38" y="-498.6" font-family="Helvetica,sans-Serif" font-size="12.00">Inference Requirements (Python FastAPI)</text>
</g>
<g id="clust4" class="cluster">
<title>cluster_data</title>
<polygon fill="#eceff1" stroke="#cfd8dc" points="508.83,-8 508.83,-115 926.21,-115 926.21,-8 508.83,-8"/>
<text xml:space="preserve" text-anchor="middle" x="717.52" y="-99.6" font-family="Helvetica,sans-Serif" font-size="12.00">Data Requirements</text>
</g>
<!-- User -->
<g id="node1" class="node">
<title>User</title>
<path fill="#eceff1" stroke="#90a4ae" d="M139.95,-485.96C139.95,-485.96 30.04,-485.96 30.04,-485.96 24.04,-485.96 18.04,-479.96 18.04,-473.96 18.04,-473.96 18.04,-448.04 18.04,-448.04 18.04,-442.04 24.04,-436.04 30.04,-436.04 30.04,-436.04 139.95,-436.04 139.95,-436.04 145.95,-436.04 151.95,-442.04 151.95,-448.04 151.95,-448.04 151.95,-473.96 151.95,-473.96 151.95,-479.96 145.95,-485.96 139.95,-485.96"/>
<text xml:space="preserve" text-anchor="middle" x="85" y="-463.5" font-family="Helvetica,sans-Serif" font-size="10.00">End User</text>
<text xml:space="preserve" text-anchor="middle" x="85" y="-451.5" font-family="Helvetica,sans-Serif" font-size="10.00">(Owner / Editor / Viewer)</text>
</g>
<!-- FE_Auth -->
<g id="node2" class="node">
<title>FE_Auth</title>
<path fill="#ffffff" stroke="#64b5f6" d="M368.42,-385.96C368.42,-385.96 279.5,-385.96 279.5,-385.96 273.5,-385.96 267.5,-379.96 267.5,-373.96 267.5,-373.96 267.5,-348.04 267.5,-348.04 267.5,-342.04 273.5,-336.04 279.5,-336.04 279.5,-336.04 368.42,-336.04 368.42,-336.04 374.42,-336.04 380.42,-342.04 380.42,-348.04 380.42,-348.04 380.42,-373.96 380.42,-373.96 380.42,-379.96 374.42,-385.96 368.42,-385.96"/>
<text xml:space="preserve" text-anchor="middle" x="323.96" y="-363.5" font-family="Helvetica,sans-Serif" font-size="10.00">Auth UI</text>
<text xml:space="preserve" text-anchor="middle" x="323.96" y="-351.5" font-family="Helvetica,sans-Serif" font-size="10.00">Login/Signup/Profile</text>
</g>
<!-- User&#45;&gt;FE_Auth -->
<g id="edge1" class="edge">
<title>User&#45;&gt;FE_Auth</title>
<path fill="none" stroke="#555555" d="M107,-435.77C107,-406.14 107,-361 107,-361 107,-361 255.72,-361 255.72,-361"/>
<polygon fill="#555555" stroke="#555555" points="255.72,-364.5 265.72,-361 255.72,-357.5 255.72,-364.5"/>
<text xml:space="preserve" text-anchor="middle" x="118.48" y="-352.45" font-family="Helvetica,sans-Serif" font-size="9.00">Authenticate</text>
</g>
<!-- FE_Dashboard -->
<g id="node3" class="node">
<title>FE_Dashboard</title>
<path fill="#ffffff" stroke="#64b5f6" d="M395.79,-485.96C395.79,-485.96 252.12,-485.96 252.12,-485.96 246.12,-485.96 240.12,-479.96 240.12,-473.96 240.12,-473.96 240.12,-448.04 240.12,-448.04 240.12,-442.04 246.12,-436.04 252.12,-436.04 252.12,-436.04 395.79,-436.04 395.79,-436.04 401.79,-436.04 407.79,-442.04 407.79,-448.04 407.79,-448.04 407.79,-473.96 407.79,-473.96 407.79,-479.96 401.79,-485.96 395.79,-485.96"/>
<text xml:space="preserve" text-anchor="middle" x="323.96" y="-463.5" font-family="Helvetica,sans-Serif" font-size="10.00">Script Dashboard</text>
<text xml:space="preserve" text-anchor="middle" x="323.96" y="-451.5" font-family="Helvetica,sans-Serif" font-size="10.00">Search/Sort/Create/Open/Delete</text>
</g>
<!-- User&#45;&gt;FE_Dashboard -->
<g id="edge2" class="edge">
<title>User&#45;&gt;FE_Dashboard</title>
<path fill="none" stroke="#555555" d="M152.19,-452.68C152.19,-452.68 228.28,-452.68 228.28,-452.68"/>
<polygon fill="#555555" stroke="#555555" points="228.28,-456.18 238.28,-452.68 228.28,-449.18 228.28,-456.18"/>
<text xml:space="preserve" text-anchor="middle" x="222.11" y="-454.63" font-family="Helvetica,sans-Serif" font-size="9.00">Manage Scripts</text>
</g>
<!-- FE_Editor -->
<g id="node4" class="node">
<title>FE_Editor</title>
<path fill="#ffffff" stroke="#64b5f6" d="M410.04,-685.96C410.04,-685.96 237.87,-685.96 237.87,-685.96 231.87,-685.96 225.87,-679.96 225.87,-673.96 225.87,-673.96 225.87,-648.04 225.87,-648.04 225.87,-642.04 231.87,-636.04 237.87,-636.04 237.87,-636.04 410.04,-636.04 410.04,-636.04 416.04,-636.04 422.04,-642.04 422.04,-648.04 422.04,-648.04 422.04,-673.96 422.04,-673.96 422.04,-679.96 416.04,-685.96 410.04,-685.96"/>
<text xml:space="preserve" text-anchor="middle" x="323.96" y="-663.5" font-family="Helvetica,sans-Serif" font-size="10.00">Collaborative Script Editor</text>
<text xml:space="preserve" text-anchor="middle" x="323.96" y="-651.5" font-family="Helvetica,sans-Serif" font-size="10.00">Dockable Panels + Layout Persistence</text>
</g>
<!-- User&#45;&gt;FE_Editor -->
<g id="edge3" class="edge">
<title>User&#45;&gt;FE_Editor</title>
<path fill="none" stroke="#555555" d="M152.07,-469.32C191.23,-469.32 233,-469.32 233,-469.32 233,-469.32 233,-624.03 233,-624.03"/>
<polygon fill="#555555" stroke="#555555" points="229.5,-624.03 233,-634.03 236.5,-624.03 229.5,-624.03"/>
<text xml:space="preserve" text-anchor="middle" x="193.25" y="-497.66" font-family="Helvetica,sans-Serif" font-size="9.00">Edit Collaboratively</text>
</g>
<!-- FE_Vis -->
<g id="node5" class="node">
<title>FE_Vis</title>
<path fill="#ffffff" stroke="#64b5f6" d="M393.54,-285.96C393.54,-285.96 254.37,-285.96 254.37,-285.96 248.37,-285.96 242.37,-279.96 242.37,-273.96 242.37,-273.96 242.37,-248.04 242.37,-248.04 242.37,-242.04 248.37,-236.04 254.37,-236.04 254.37,-236.04 393.54,-236.04 393.54,-236.04 399.54,-236.04 405.54,-242.04 405.54,-248.04 405.54,-248.04 405.54,-273.96 405.54,-273.96 405.54,-279.96 399.54,-285.96 393.54,-285.96"/>
<text xml:space="preserve" text-anchor="middle" x="323.96" y="-263.5" font-family="Helvetica,sans-Serif" font-size="10.00">Timeline + 3D Visualizer</text>
<text xml:space="preserve" text-anchor="middle" x="323.96" y="-251.5" font-family="Helvetica,sans-Serif" font-size="10.00">Character/Scene/Story Insights</text>
</g>
<!-- User&#45;&gt;FE_Vis -->
<g id="edge4" class="edge">
<title>User&#45;&gt;FE_Vis</title>
<path fill="none" stroke="#555555" d="M63,-435.67C63,-381.85 63,-261 63,-261 63,-261 230.59,-261 230.59,-261"/>
<polygon fill="#555555" stroke="#555555" points="230.59,-264.5 240.59,-261 230.59,-257.5 230.59,-264.5"/>
<text xml:space="preserve" text-anchor="middle" x="31.5" y="-255.99" font-family="Helvetica,sans-Serif" font-size="9.00">Inspect Insights</text>
</g>
<!-- FE_Settings -->
<g id="node6" class="node">
<title>FE_Settings</title>
<path fill="#ffffff" stroke="#64b5f6" d="M385.67,-585.96C385.67,-585.96 262.25,-585.96 262.25,-585.96 256.25,-585.96 250.25,-579.96 250.25,-573.96 250.25,-573.96 250.25,-548.04 250.25,-548.04 250.25,-542.04 256.25,-536.04 262.25,-536.04 262.25,-536.04 385.67,-536.04 385.67,-536.04 391.67,-536.04 397.67,-542.04 397.67,-548.04 397.67,-548.04 397.67,-573.96 397.67,-573.96 397.67,-579.96 391.67,-585.96 385.67,-585.96"/>
<text xml:space="preserve" text-anchor="middle" x="323.96" y="-563.5" font-family="Helvetica,sans-Serif" font-size="10.00">Script Settings</text>
<text xml:space="preserve" text-anchor="middle" x="323.96" y="-551.5" font-family="Helvetica,sans-Serif" font-size="10.00">Share/Permissions/Transfer</text>
</g>
<!-- User&#45;&gt;FE_Settings -->
<g id="edge5" class="edge">
<title>User&#45;&gt;FE_Settings</title>
<path fill="none" stroke="#555555" d="M85,-486.23C85,-515.86 85,-561 85,-561 85,-561 238.47,-561 238.47,-561"/>
<polygon fill="#555555" stroke="#555555" points="238.47,-564.5 248.47,-561 238.47,-557.5 238.47,-564.5"/>
<text xml:space="preserve" text-anchor="middle" x="91.73" y="-552.45" font-family="Helvetica,sans-Serif" font-size="9.00">Manage Access</text>
</g>
<!-- BE_API -->
<g id="node7" class="node">
<title>BE_API</title>
<path fill="#ffffff" stroke="#ffb74d" d="M648.12,-579.96C648.12,-579.96 508.95,-579.96 508.95,-579.96 502.95,-579.96 496.95,-573.96 496.95,-567.96 496.95,-567.96 496.95,-542.04 496.95,-542.04 496.95,-536.04 502.95,-530.04 508.95,-530.04 508.95,-530.04 648.12,-530.04 648.12,-530.04 654.12,-530.04 660.12,-536.04 660.12,-542.04 660.12,-542.04 660.12,-567.96 660.12,-567.96 660.12,-573.96 654.12,-579.96 648.12,-579.96"/>
<text xml:space="preserve" text-anchor="middle" x="578.54" y="-557.5" font-family="Helvetica,sans-Serif" font-size="10.00">REST API</text>
<text xml:space="preserve" text-anchor="middle" x="578.54" y="-545.5" font-family="Helvetica,sans-Serif" font-size="10.00">User + Script + Access Control</text>
</g>
<!-- FE_Auth&#45;&gt;BE_API -->
<g id="edge6" class="edge">
<title>FE_Auth&#45;&gt;BE_API</title>
<path fill="none" stroke="#555555" d="M380.43,-371.98C433.23,-371.98 504,-371.98 504,-371.98 504,-371.98 504,-518.04 504,-518.04"/>
<polygon fill="#555555" stroke="#555555" points="500.5,-518.04 504,-528.04 507.5,-518.04 500.5,-518.04"/>
<text xml:space="preserve" text-anchor="middle" x="492.38" y="-374.67" font-family="Helvetica,sans-Serif" font-size="9.00">HTTP</text>
</g>
<!-- FE_Dashboard&#45;&gt;BE_API -->
<g id="edge7" class="edge">
<title>FE_Dashboard&#45;&gt;BE_API</title>
<path fill="none" stroke="#555555" d="M403,-486.34C403,-511.72 403,-547.02 403,-547.02 403,-547.02 485.17,-547.02 485.17,-547.02"/>
<polygon fill="#555555" stroke="#555555" points="485.17,-550.52 495.17,-547.02 485.17,-543.52 485.17,-550.52"/>
<text xml:space="preserve" text-anchor="middle" x="425.37" y="-538.47" font-family="Helvetica,sans-Serif" font-size="9.00">HTTP</text>
</g>
<!-- FE_Editor&#45;&gt;BE_API -->
<g id="edge10" class="edge">
<title>FE_Editor&#45;&gt;BE_API</title>
<path fill="none" stroke="#555555" d="M415,-635.86C415,-608.61 415,-568.98 415,-568.98 415,-568.98 485.26,-568.98 485.26,-568.98"/>
<polygon fill="#555555" stroke="#555555" points="485.26,-572.48 495.26,-568.98 485.26,-565.48 485.26,-572.48"/>
<text xml:space="preserve" text-anchor="middle" x="448.57" y="-560.43" font-family="Helvetica,sans-Serif" font-size="9.00">HTTP Metadata</text>
</g>
<!-- BE_RT -->
<g id="node9" class="node">
<title>BE_RT</title>
<path fill="#ffffff" stroke="#ffb74d" d="M634.62,-691.96C634.62,-691.96 522.45,-691.96 522.45,-691.96 516.45,-691.96 510.45,-685.96 510.45,-679.96 510.45,-679.96 510.45,-642.04 510.45,-642.04 510.45,-636.04 516.45,-630.04 522.45,-630.04 522.45,-630.04 634.62,-630.04 634.62,-630.04 640.62,-630.04 646.62,-636.04 646.62,-642.04 646.62,-642.04 646.62,-679.96 646.62,-679.96 646.62,-685.96 640.62,-691.96 634.62,-691.96"/>
<text xml:space="preserve" text-anchor="middle" x="578.54" y="-669.5" font-family="Helvetica,sans-Serif" font-size="10.00">Realtime Collaboration</text>
<text xml:space="preserve" text-anchor="middle" x="578.54" y="-657.5" font-family="Helvetica,sans-Serif" font-size="10.00">Yjs over WebSocket</text>
<text xml:space="preserve" text-anchor="middle" x="578.54" y="-645.5" font-family="Helvetica,sans-Serif" font-size="10.00">Role&#45;based Write Access</text>
</g>
<!-- FE_Editor&#45;&gt;BE_RT -->
<g id="edge9" class="edge">
<title>FE_Editor&#45;&gt;BE_RT</title>
<path fill="none" stroke="#555555" d="M422.38,-661C422.38,-661 498.8,-661 498.8,-661"/>
<polygon fill="#555555" stroke="#555555" points="498.8,-664.5 508.8,-661 498.8,-657.5 498.8,-664.5"/>
<text xml:space="preserve" text-anchor="middle" x="483.84" y="-652.45" font-family="Helvetica,sans-Serif" font-size="9.00">WebSocket</text>
</g>
<!-- AI_Scene -->
<g id="node12" class="node">
<title>AI_Scene</title>
<path fill="#ffffff" stroke="#81c784" d="M888.96,-483.96C888.96,-483.96 800.79,-483.96 800.79,-483.96 794.79,-483.96 788.79,-477.96 788.79,-471.96 788.79,-471.96 788.79,-446.04 788.79,-446.04 788.79,-440.04 794.79,-434.04 800.79,-434.04 800.79,-434.04 888.96,-434.04 888.96,-434.04 894.96,-434.04 900.96,-440.04 900.96,-446.04 900.96,-446.04 900.96,-471.96 900.96,-471.96 900.96,-477.96 894.96,-483.96 888.96,-483.96"/>
<text xml:space="preserve" text-anchor="middle" x="844.88" y="-461.5" font-family="Helvetica,sans-Serif" font-size="10.00">Analyze Scene</text>
<text xml:space="preserve" text-anchor="middle" x="844.88" y="-449.5" font-family="Helvetica,sans-Serif" font-size="10.00">Summary + Metrics</text>
</g>
<!-- FE_Vis&#45;&gt;AI_Scene -->
<g id="edge11" class="edge">
<title>FE_Vis&#45;&gt;AI_Scene</title>
<path fill="none" stroke="#555555" d="M405.83,-264.79C455.74,-264.79 510,-264.79 510,-264.79 510,-264.79 510,-452.01 510,-452.01 510,-452.01 776.93,-452.01 776.93,-452.01"/>
<polygon fill="#555555" stroke="#555555" points="776.93,-455.51 786.93,-452.01 776.93,-448.51 776.93,-455.51"/>
<text xml:space="preserve" text-anchor="middle" x="485.25" y="-431.23" font-family="Helvetica,sans-Serif" font-size="9.00">AI Requests</text>
</g>
<!-- AI_Emotion -->
<g id="node13" class="node">
<title>AI_Emotion</title>
<path fill="#ffffff" stroke="#81c784" d="M916.71,-383.96C916.71,-383.96 773.04,-383.96 773.04,-383.96 767.04,-383.96 761.04,-377.96 761.04,-371.96 761.04,-371.96 761.04,-346.04 761.04,-346.04 761.04,-340.04 767.04,-334.04 773.04,-334.04 773.04,-334.04 916.71,-334.04 916.71,-334.04 922.71,-334.04 928.71,-340.04 928.71,-346.04 928.71,-346.04 928.71,-371.96 928.71,-371.96 928.71,-377.96 922.71,-383.96 916.71,-383.96"/>
<text xml:space="preserve" text-anchor="middle" x="844.88" y="-361.5" font-family="Helvetica,sans-Serif" font-size="10.00">Analyze Emotion</text>
<text xml:space="preserve" text-anchor="middle" x="844.88" y="-349.5" font-family="Helvetica,sans-Serif" font-size="10.00">Dominant Emotion + Breakdown</text>
</g>
<!-- FE_Vis&#45;&gt;AI_Emotion -->
<g id="edge12" class="edge">
<title>FE_Vis&#45;&gt;AI_Emotion</title>
<path fill="none" stroke="#555555" d="M405.81,-255.21C533.59,-255.21 766,-255.21 766,-255.21 766,-255.21 766,-322.1 766,-322.1"/>
<polygon fill="#555555" stroke="#555555" points="762.5,-322.1 766,-332.1 769.5,-322.1 762.5,-322.1"/>
<text xml:space="preserve" text-anchor="middle" x="594.6" y="-246.66" font-family="Helvetica,sans-Serif" font-size="9.00">AI Requests</text>
</g>
<!-- AI_Network -->
<g id="node14" class="node">
<title>AI_Network</title>
<path fill="#ffffff" stroke="#81c784" d="M897.96,-183.96C897.96,-183.96 791.79,-183.96 791.79,-183.96 785.79,-183.96 779.79,-177.96 779.79,-171.96 779.79,-171.96 779.79,-146.04 779.79,-146.04 779.79,-140.04 785.79,-134.04 791.79,-134.04 791.79,-134.04 897.96,-134.04 897.96,-134.04 903.96,-134.04 909.96,-140.04 909.96,-146.04 909.96,-146.04 909.96,-171.96 909.96,-171.96 909.96,-177.96 903.96,-183.96 897.96,-183.96"/>
<text xml:space="preserve" text-anchor="middle" x="844.88" y="-161.5" font-family="Helvetica,sans-Serif" font-size="10.00">Analyze Network</text>
<text xml:space="preserve" text-anchor="middle" x="844.88" y="-149.5" font-family="Helvetica,sans-Serif" font-size="10.00">Centrality/Betweenness</text>
</g>
<!-- FE_Vis&#45;&gt;AI_Network -->
<g id="edge13" class="edge">
<title>FE_Vis&#45;&gt;AI_Network</title>
<path fill="none" stroke="#555555" d="M324,-235.79C324,-205.58 324,-159 324,-159 324,-159 767.92,-159 767.92,-159"/>
<polygon fill="#555555" stroke="#555555" points="767.92,-162.5 777.92,-159 767.92,-155.5 767.92,-162.5"/>
<text xml:space="preserve" text-anchor="middle" x="482.82" y="-150.45" font-family="Helvetica,sans-Serif" font-size="9.00">AI Requests</text>
</g>
<!-- FE_Settings&#45;&gt;BE_API -->
<g id="edge8" class="edge">
<title>FE_Settings&#45;&gt;BE_API</title>
<path fill="none" stroke="#555555" d="M397.93,-558C397.93,-558 485.28,-558 485.28,-558"/>
<polygon fill="#555555" stroke="#555555" points="485.28,-561.5 495.28,-558 485.28,-554.5 485.28,-561.5"/>
<text xml:space="preserve" text-anchor="middle" x="429.98" y="-549.45" font-family="Helvetica,sans-Serif" font-size="9.00">HTTP</text>
</g>
<!-- BE_Auth -->
<g id="node8" class="node">
<title>BE_Auth</title>
<path fill="#ffffff" stroke="#ffb74d" d="M919.34,-584.96C919.34,-584.96 770.41,-584.96 770.41,-584.96 764.41,-584.96 758.41,-578.96 758.41,-572.96 758.41,-572.96 758.41,-547.04 758.41,-547.04 758.41,-541.04 764.41,-535.04 770.41,-535.04 770.41,-535.04 919.34,-535.04 919.34,-535.04 925.34,-535.04 931.34,-541.04 931.34,-547.04 931.34,-547.04 931.34,-572.96 931.34,-572.96 931.34,-578.96 925.34,-584.96 919.34,-584.96"/>
<text xml:space="preserve" text-anchor="middle" x="844.88" y="-562.5" font-family="Helvetica,sans-Serif" font-size="10.00">Security</text>
<text xml:space="preserve" text-anchor="middle" x="844.88" y="-550.5" font-family="Helvetica,sans-Serif" font-size="10.00">JWT + HttpOnly Cookie + CORS</text>
</g>
<!-- BE_API&#45;&gt;BE_Auth -->
<g id="edge14" class="edge">
<title>BE_API&#45;&gt;BE_Auth</title>
<path fill="none" stroke="#555555" d="M660.62,-550.01C660.62,-550.01 746.47,-550.01 746.47,-550.01"/>
<polygon fill="#555555" stroke="#555555" points="746.47,-553.51 756.47,-550.01 746.47,-546.51 746.47,-553.51"/>
<text xml:space="preserve" text-anchor="middle" x="733.55" y="-541.46" font-family="Helvetica,sans-Serif" font-size="9.00">Protect Routes</text>
</g>
<!-- AI_Parse -->
<g id="node11" class="node">
<title>AI_Parse</title>
<path fill="#ffffff" stroke="#81c784" d="M903.96,-283.96C903.96,-283.96 785.79,-283.96 785.79,-283.96 779.79,-283.96 773.79,-277.96 773.79,-271.96 773.79,-271.96 773.79,-246.04 773.79,-246.04 773.79,-240.04 779.79,-234.04 785.79,-234.04 785.79,-234.04 903.96,-234.04 903.96,-234.04 909.96,-234.04 915.96,-240.04 915.96,-246.04 915.96,-246.04 915.96,-271.96 915.96,-271.96 915.96,-277.96 909.96,-283.96 903.96,-283.96"/>
<text xml:space="preserve" text-anchor="middle" x="844.88" y="-261.5" font-family="Helvetica,sans-Serif" font-size="10.00">Parse Endpoint</text>
<text xml:space="preserve" text-anchor="middle" x="844.88" y="-249.5" font-family="Helvetica,sans-Serif" font-size="10.00">Scene/Character Structure</text>
</g>
<!-- BE_API&#45;&gt;AI_Parse -->
<g id="edge19" class="edge">
<title>BE_API&#45;&gt;AI_Parse</title>
<path fill="none" stroke="#555555" d="M648,-529.6C648,-460.52 648,-274.38 648,-274.38 648,-274.38 762.01,-274.38 762.01,-274.38"/>
<polygon fill="#555555" stroke="#555555" points="762.01,-277.88 772.01,-274.38 762.01,-270.88 762.01,-277.88"/>
<text xml:space="preserve" text-anchor="middle" x="623.25" y="-336.44" font-family="Helvetica,sans-Serif" font-size="9.00">Parse Script</text>
</g>
<!-- BE_API&#45;&gt;AI_Scene -->
<g id="edge20" class="edge">
<title>BE_API&#45;&gt;AI_Scene</title>
<path fill="none" stroke="#555555" d="M656,-529.83C656,-504.13 656,-467.99 656,-467.99 656,-467.99 776.95,-467.99 776.95,-467.99"/>
<polygon fill="#555555" stroke="#555555" points="776.95,-471.49 786.95,-467.99 776.95,-464.49 776.95,-471.49"/>
<text xml:space="preserve" text-anchor="middle" x="639.8" y="-459.44" font-family="Helvetica,sans-Serif" font-size="9.00">Optional Orchestration</text>
</g>
<!-- BE_API&#45;&gt;AI_Emotion -->
<g id="edge21" class="edge">
<title>BE_API&#45;&gt;AI_Emotion</title>
<path fill="none" stroke="#555555" d="M652,-529.91C652,-477.24 652,-360 652,-360 652,-360 749.04,-360 749.04,-360"/>
<polygon fill="#555555" stroke="#555555" points="749.04,-363.5 759.04,-360 749.04,-356.5 749.04,-363.5"/>
<text xml:space="preserve" text-anchor="middle" x="614.88" y="-387.88" font-family="Helvetica,sans-Serif" font-size="9.00">Emotion Inference</text>
</g>
<!-- DB -->
<g id="node15" class="node">
<title>DB</title>
<path fill="#ffffff" stroke="#90a4ae" d="M918.21,-78.08C918.21,-81.52 885.34,-84.32 844.88,-84.32 804.41,-84.32 771.54,-81.52 771.54,-78.08 771.54,-78.08 771.54,-21.92 771.54,-21.92 771.54,-18.48 804.41,-15.68 844.88,-15.68 885.34,-15.68 918.21,-18.48 918.21,-21.92 918.21,-21.92 918.21,-78.08 918.21,-78.08"/>
<path fill="none" stroke="#90a4ae" d="M918.21,-78.08C918.21,-74.64 885.34,-71.84 844.88,-71.84 804.41,-71.84 771.54,-74.64 771.54,-78.08"/>
<text xml:space="preserve" text-anchor="middle" x="844.88" y="-52.5" font-family="Helvetica,sans-Serif" font-size="10.00">MongoDB</text>
<text xml:space="preserve" text-anchor="middle" x="844.88" y="-40.5" font-family="Helvetica,sans-Serif" font-size="10.00">Users + Scripts + Yjs State</text>
</g>
<!-- BE_API&#45;&gt;DB -->
<g id="edge16" class="edge">
<title>BE_API&#45;&gt;DB</title>
<path fill="none" stroke="#555555" d="M644,-529.84C644,-430.09 644,-67.89 644,-67.89 644,-67.89 759.7,-67.89 759.7,-67.89"/>
<polygon fill="#555555" stroke="#555555" points="759.7,-71.39 769.7,-67.89 759.7,-64.39 759.7,-71.39"/>
<text xml:space="preserve" text-anchor="middle" x="630.5" y="-232.46" font-family="Helvetica,sans-Serif" font-size="9.00">CRUD</text>
</g>
<!-- BE_RT&#45;&gt;BE_Auth -->
<g id="edge15" class="edge">
<title>BE_RT&#45;&gt;BE_Auth</title>
<path fill="none" stroke="#555555" d="M646.83,-651.68C678.39,-651.68 709,-651.68 709,-651.68 709,-651.68 709,-564.99 709,-564.99 709,-564.99 746.54,-564.99 746.54,-564.99"/>
<polygon fill="#555555" stroke="#555555" points="746.54,-568.49 756.54,-564.99 746.54,-561.49 746.54,-568.49"/>
<text xml:space="preserve" text-anchor="middle" x="665.88" y="-612.1" font-family="Helvetica,sans-Serif" font-size="9.00">Authenticate Session</text>
</g>
<!-- BE_Persist -->
<g id="node10" class="node">
<title>BE_Persist</title>
<path fill="#ffffff" stroke="#ffb74d" d="M913.71,-684.96C913.71,-684.96 776.04,-684.96 776.04,-684.96 770.04,-684.96 764.04,-678.96 764.04,-672.96 764.04,-672.96 764.04,-647.04 764.04,-647.04 764.04,-641.04 770.04,-635.04 776.04,-635.04 776.04,-635.04 913.71,-635.04 913.71,-635.04 919.71,-635.04 925.71,-641.04 925.71,-647.04 925.71,-647.04 925.71,-672.96 925.71,-672.96 925.71,-678.96 919.71,-684.96 913.71,-684.96"/>
<text xml:space="preserve" text-anchor="middle" x="844.88" y="-662.5" font-family="Helvetica,sans-Serif" font-size="10.00">Document Persistence Adapter</text>
<text xml:space="preserve" text-anchor="middle" x="844.88" y="-650.5" font-family="Helvetica,sans-Serif" font-size="10.00">Load/Store Shared State</text>
</g>
<!-- BE_RT&#45;&gt;BE_Persist -->
<g id="edge17" class="edge">
<title>BE_RT&#45;&gt;BE_Persist</title>
<path fill="none" stroke="#555555" d="M646.78,-668.32C646.78,-668.32 752.51,-668.32 752.51,-668.32"/>
<polygon fill="#555555" stroke="#555555" points="752.51,-671.82 762.51,-668.32 752.51,-664.82 752.51,-671.82"/>
<text xml:space="preserve" text-anchor="middle" x="677.9" y="-659.77" font-family="Helvetica,sans-Serif" font-size="9.00">Sync State</text>
</g>
<!-- BE_Persist&#45;&gt;DB -->
<g id="edge18" class="edge">
<title>BE_Persist&#45;&gt;DB</title>
<path fill="none" stroke="#555555" d="M926.15,-660C939.46,-660 949,-660 949,-660 949,-660 949,-50 949,-50 949,-50 930.12,-50 930.12,-50"/>
<polygon fill="#555555" stroke="#555555" points="930.12,-46.5 920.12,-50 930.12,-53.5 930.12,-46.5"/>
<text xml:space="preserve" text-anchor="middle" x="972.25" y="-348.43" font-family="Helvetica,sans-Serif" font-size="9.00">Store/Fetch</text>
</g>
<!-- ENV -->
<g id="node16" class="node">
<title>ENV</title>
<path fill="#ffffff" stroke="#90a4ae" d="M628.25,-84.96C628.25,-84.96 528.83,-84.96 528.83,-84.96 522.83,-84.96 516.83,-78.96 516.83,-72.96 516.83,-72.96 516.83,-47.04 516.83,-47.04 516.83,-41.04 522.83,-35.04 528.83,-35.04 528.83,-35.04 628.25,-35.04 628.25,-35.04 634.25,-35.04 640.25,-41.04 640.25,-47.04 640.25,-47.04 640.25,-72.96 640.25,-72.96 640.25,-78.96 634.25,-84.96 628.25,-84.96"/>
<text xml:space="preserve" text-anchor="middle" x="578.54" y="-62.5" font-family="Helvetica,sans-Serif" font-size="10.00">Configuration</text>
<text xml:space="preserve" text-anchor="middle" x="578.54" y="-50.5" font-family="Helvetica,sans-Serif" font-size="10.00">Environment Variables</text>
</g>
<!-- ENV&#45;&gt;FE_Auth -->
<g id="edge22" class="edge">
<title>ENV&#45;&gt;FE_Auth</title>
<path fill="none" stroke="#555555" stroke-dasharray="5,2" d="M548,-85.31C548,-155.59 548,-348.02 548,-348.02 548,-348.02 392.29,-348.02 392.29,-348.02"/>
<polygon fill="#555555" stroke="#555555" points="392.29,-344.52 382.29,-348.02 392.29,-351.52 392.29,-344.52"/>
<text xml:space="preserve" text-anchor="middle" x="521" y="-285.97" font-family="Helvetica,sans-Serif" font-size="9.00">VITE_* URLs</text>
</g>
<!-- ENV&#45;&gt;BE_API -->
<g id="edge23" class="edge">
<title>ENV&#45;&gt;BE_API</title>
<path fill="none" stroke="#555555" stroke-dasharray="5,2" d="M579,-85.23C579,-85.23 579,-518.31 579,-518.31"/>
<polygon fill="#555555" stroke="#555555" points="575.5,-518.31 579,-528.31 582.5,-518.31 575.5,-518.31"/>
<text xml:space="preserve" text-anchor="middle" x="616.88" y="-293.22" font-family="Helvetica,sans-Serif" font-size="9.00">PORT, JWT, CORS</text>
</g>
<!-- ENV&#45;&gt;AI_Parse -->
<g id="edge24" class="edge">
<title>ENV&#45;&gt;AI_Parse</title>
<path fill="none" stroke="#555555" stroke-dasharray="5,2" d="M609,-85.42C609,-136.26 609,-245.62 609,-245.62 609,-245.62 761.95,-245.62 761.95,-245.62"/>
<polygon fill="#555555" stroke="#555555" points="761.95,-249.12 771.95,-245.62 761.95,-242.12 761.95,-249.12"/>
<text xml:space="preserve" text-anchor="middle" x="577.88" y="-233.45" font-family="Helvetica,sans-Serif" font-size="9.00">Model Runtime</text>
</g>
<!-- ENV&#45;&gt;DB -->
<g id="edge25" class="edge">
<title>ENV&#45;&gt;DB</title>
<path fill="none" stroke="#555555" stroke-dasharray="5,2" d="M640.65,-51.47C640.65,-51.47 759.79,-51.47 759.79,-51.47"/>
<polygon fill="#555555" stroke="#555555" points="759.79,-54.97 769.79,-51.47 759.79,-47.97 759.79,-54.97"/>
<text xml:space="preserve" text-anchor="middle" x="672.47" y="-42.92" font-family="Helvetica,sans-Serif" font-size="9.00">MONGO_URI</text>
</g>
</g>
</svg>
