<?xml version="1.0" encoding="UTF-8" standalone="no"?>
<!-- Generated by graphviz version 14.1.1 (20251213.1925)
 -->

<!-- Title: GeometryPipeline Pages: 1 -->

<svg
   width="1788pt"
   height="392pt"
   viewBox="0.00 0.00 1788.00 392.00"
   version="1.1"
   id="svg39"
   sodipodi:docname="visualization.svg"
   inkscape:version="1.4.2 (ebf0e94, 2025-05-08)"
   xmlns:inkscape="http://www.inkscape.org/namespaces/inkscape"
   xmlns:sodipodi="http://sodipodi.sourceforge.net/DTD/sodipodi-0.dtd"
   xmlns="http://www.w3.org/2000/svg"
   xmlns:svg="http://www.w3.org/2000/svg">
  <defs
     id="defs39" />
  <sodipodi:namedview
     id="namedview39"
     pagecolor="#505050"
     bordercolor="#eeeeee"
     borderopacity="1"
     inkscape:showpageshadow="0"
     inkscape:pageopacity="0"
     inkscape:pagecheckerboard="0"
     inkscape:deskcolor="#505050"
     inkscape:document-units="pt"
     inkscape:zoom="0.52677082"
     inkscape:cx="1333.597"
     inkscape:cy="31.322919"
     inkscape:window-width="1920"
     inkscape:window-height="1009"
     inkscape:window-x="-8"
     inkscape:window-y="-8"
     inkscape:window-maximized="1"
     inkscape:current-layer="graph0" />
  <g
     id="graph0"
     class="graph"
     transform="scale(1 1) rotate(0) translate(4 387.75)">
    <title
       id="title1">GeometryPipeline</title>
    <polygon
       fill="white"
       stroke="none"
       points="-4,4 -4,-387.75 1783.8,-387.75 1783.8,4 -4,4"
       id="polygon1"
       inkscape:export-filename="visualization.png"
       inkscape:export-xdpi="96"
       inkscape:export-ydpi="96" />
    <text
       xml:space="preserve"
       text-anchor="middle"
       x="889.9"
       y="-6.45"
       font-family="Helvetica,sans-Serif"
       font-size="14.00"
       id="text1">3D Geometry Pipeline: Data to Visuals</text>
    <g
       id="clust1"
       class="cluster">
      <title
         id="title2">cluster_inputs</title>
      <polygon
         fill="none"
         stroke="#b0bec5"
         stroke-dasharray="5,2"
         points="8,-261.75 8,-361.75 787.2,-361.75 787.2,-261.75 8,-261.75"
         id="polygon2" />
      <text
         xml:space="preserve"
         text-anchor="middle"
         x="397.6"
         y="-344.45"
         font-family="Helvetica,sans-Serif"
         font-size="14.00"
         fill="#546e7a"
         id="text2">Input: Narrative State</text>
    </g>
    <g
       id="clust2"
       class="cluster">
      <title
         id="title3">cluster_engine</title>
      <polygon
         fill="#e3f2fd"
         stroke="#e3f2fd"
         points="835.2,-31.75 835.2,-375.75 1257.8,-375.75 1257.8,-31.75 835.2,-31.75"
         id="polygon3" />
      <text
         xml:space="preserve"
         text-anchor="middle"
         x="1046.5"
         y="-358.45"
         font-family="Helvetica,sans-Serif"
         font-size="14.00"
         fill="#0277bd"
         id="text3">Geometry Processing Engine</text>
    </g>
    <g
       id="clust3"
       class="cluster">
      <title
         id="title4">cluster_coords</title>
      <polygon
         fill="#ffffff"
         stroke="#ffffff"
         points="860.07,-147.75 860.07,-343.75 1003.12,-343.75 1003.12,-147.75 860.07,-147.75"
         id="polygon4" />
      <text
         xml:space="preserve"
         text-anchor="middle"
         x="931.6"
         y="-326.45"
         font-family="Helvetica,sans-Serif"
         font-size="14.00"
         fill="#0277bd"
         id="text4">Coordinate Mapping</text>
    </g>
    <g
       id="clust4"
       class="cluster">
      <title
         id="title5">cluster_path</title>
      <polygon
         fill="#ffffff"
         stroke="#ffffff"
         points="1076,-240.75 1076,-340.75 1249.8,-340.75 1249.8,-240.75 1076,-240.75"
         id="polygon5" />
      <text
         xml:space="preserve"
         text-anchor="middle"
         x="1162.9"
         y="-323.45"
         font-family="Helvetica,sans-Serif"
         font-size="14.00"
         fill="#0277bd"
         id="text5">Trajectory Logic</text>
    </g>
    <g
       id="clust5"
       class="cluster">
      <title
         id="title6">cluster_material</title>
      <polygon
         fill="#ffffff"
         stroke="#ffffff"
         points="843.2,-39.75 843.2,-139.75 1020,-139.75 1020,-39.75 843.2,-39.75"
         id="polygon6" />
      <text
         xml:space="preserve"
         text-anchor="middle"
         x="931.6"
         y="-122.45"
         font-family="Helvetica,sans-Serif"
         font-size="14.00"
         fill="#0277bd"
         id="text6">Material Properties</text>
    </g>
    <g
       id="clust6"
       class="cluster">
      <title
         id="title7">cluster_output</title>
      <polygon
         fill="#fff3e0"
         stroke="#fff3e0"
         points="1305.8,-79.75 1305.8,-247.75 1771.8,-247.75 1771.8,-79.75 1305.8,-79.75"
         id="polygon7" />
      <text
         xml:space="preserve"
         text-anchor="middle"
         x="1538.8"
         y="-230.45"
         font-family="Helvetica,sans-Serif"
         font-size="14.00"
         fill="#e65100"
         id="text7">Three.js Objects</text>
    </g>
    <!-- Input_Time -->
    <g
       id="node1"
       class="node">
      <title
         id="title8">Input_Time</title>
      <path
         fill="#eceff1"
         stroke="black"
         stroke-width="0"
         d="M101.05,-318.02C101.05,-318.02 28,-318.02 28,-318.02 22,-318.02 16,-312.02 16,-306.02 16,-306.02 16,-285.48 16,-285.48 16,-279.48 22,-273.48 28,-273.48 28,-273.48 101.05,-273.48 101.05,-273.48 107.05,-273.48 113.05,-279.48 113.05,-285.48 113.05,-285.48 113.05,-306.02 113.05,-306.02 113.05,-312.02 107.05,-318.02 101.05,-318.02"
         id="path8" />
      <text
         xml:space="preserve"
         text-anchor="middle"
         x="64.53"
         y="-290.32"
         font-family="Helvetica,sans-Serif"
         font-size="14.00"
         id="text8">Timeline (t)</text>
    </g>
    <!-- Input_Emotion -->
    <g
       id="node2"
       class="node">
      <title
         id="title9">Input_Emotion</title>
      <path
         fill="#eceff1"
         stroke="black"
         stroke-width="0"
         d="M303.85,-329.9C303.85,-329.9 197.05,-329.9 197.05,-329.9 191.05,-329.9 185.05,-323.9 185.05,-317.9 185.05,-317.9 185.05,-281.6 185.05,-281.6 185.05,-275.6 191.05,-269.6 197.05,-269.6 197.05,-269.6 303.85,-269.6 303.85,-269.6 309.85,-269.6 315.85,-275.6 315.85,-281.6 315.85,-281.6 315.85,-317.9 315.85,-317.9 315.85,-323.9 309.85,-329.9 303.85,-329.9"
         id="path9" />
      <text
         xml:space="preserve"
         text-anchor="middle"
         x="250.45"
         y="-302.2"
         font-family="Helvetica,sans-Serif"
         font-size="14.00"
         id="text9">Emotion Tag</text>
      <text
         xml:space="preserve"
         text-anchor="middle"
         x="250.45"
         y="-286.45"
         font-family="Helvetica,sans-Serif"
         font-size="14.00"
         id="text10">(e.g., Joy, Anger)</text>
    </g>
    <!-- Input_Time&#45;&gt;Input_Emotion -->
    <!-- Z_Mapper -->
    <g
       id="node5"
       class="node">
      <title
         id="title10">Z_Mapper</title>
      <path
         fill="#bbdefb"
         stroke="black"
         stroke-width="0"
         d="M963.62,-215.9C963.62,-215.9 899.57,-215.9 899.57,-215.9 893.57,-215.9 887.57,-209.9 887.57,-203.9 887.57,-203.9 887.57,-167.6 887.57,-167.6 887.57,-161.6 893.57,-155.6 899.57,-155.6 899.57,-155.6 963.62,-155.6 963.62,-155.6 969.62,-155.6 975.62,-161.6 975.62,-167.6 975.62,-167.6 975.62,-203.9 975.62,-203.9 975.62,-209.9 969.62,-215.9 963.62,-215.9"
         id="path10" />
      <text
         xml:space="preserve"
         text-anchor="middle"
         x="931.6"
         y="-188.2"
         font-family="Helvetica,sans-Serif"
         font-size="14.00"
         id="text11">Z-Mapper</text>
      <text
         xml:space="preserve"
         text-anchor="middle"
         x="931.6"
         y="-172.45"
         font-family="Helvetica,sans-Serif"
         font-size="14.00"
         id="text12">(t → z)</text>
    </g>
    <!-- Input_Time&#45;&gt;Z_Mapper -->
    <g
       id="edge1"
       class="edge">
      <title
         id="title12">Input_Time-&gt;Z_Mapper</title>
      <path
         fill="none"
         stroke="#555555"
         d="M64.8,-273.49C64.8,-241.35 64.8,-185.75 64.8,-185.75 64.8,-185.75 876.21,-185.75 876.21,-185.75"
         id="path12" />
      <polygon
         fill="#555555"
         stroke="#555555"
         points="876.21,-189.25 886.21,-185.75 876.21,-182.25 876.21,-189.25"
         id="polygon12" />
      <text
         xml:space="preserve"
         text-anchor="middle"
         x="405.63"
         y="-177.2"
         font-family="Helvetica,sans-Serif"
         font-size="9.00"
         id="text13">Normalize</text>
    </g>
    <!-- Input_Closeness -->
    <g
       id="node3"
       class="node">
      <title
         id="title13">Input_Closeness</title>
      <path
         fill="#eceff1"
         stroke="black"
         stroke-width="0"
         d="M530.65,-329.9C530.65,-329.9 399.85,-329.9 399.85,-329.9 393.85,-329.9 387.85,-323.9 387.85,-317.9 387.85,-317.9 387.85,-281.6 387.85,-281.6 387.85,-275.6 393.85,-269.6 399.85,-269.6 399.85,-269.6 530.65,-269.6 530.65,-269.6 536.65,-269.6 542.65,-275.6 542.65,-281.6 542.65,-281.6 542.65,-317.9 542.65,-317.9 542.65,-323.9 536.65,-329.9 530.65,-329.9"
         id="path13" />
      <text
         xml:space="preserve"
         text-anchor="middle"
         x="465.25"
         y="-302.2"
         font-family="Helvetica,sans-Serif"
         font-size="14.00"
         id="text14">Character Closeness</text>
      <text
         xml:space="preserve"
         text-anchor="middle"
         x="465.25"
         y="-286.45"
         font-family="Helvetica,sans-Serif"
         font-size="14.00"
         id="text15">(0.0 - 1.0)</text>
    </g>
    <!-- Input_Emotion&#45;&gt;Input_Closeness -->
    <!-- XY_Mapper -->
    <g
       id="node6"
       class="node">
      <title
         id="title15">XY_Mapper</title>
      <path
         fill="#bbdefb"
         stroke="black"
         stroke-width="0"
         d="M983.12,-311.9C983.12,-311.9 880.07,-311.9 880.07,-311.9 874.07,-311.9 868.07,-305.9 868.07,-299.9 868.07,-299.9 868.07,-263.6 868.07,-263.6 868.07,-257.6 874.07,-251.6 880.07,-251.6 880.07,-251.6 983.12,-251.6 983.12,-251.6 989.12,-251.6 995.12,-257.6 995.12,-263.6 995.12,-263.6 995.12,-299.9 995.12,-299.9 995.12,-305.9 989.12,-311.9 983.12,-311.9"
         id="path15" />
      <text
         xml:space="preserve"
         text-anchor="middle"
         x="931.6"
         y="-284.2"
         font-family="Helvetica,sans-Serif"
         font-size="14.00"
         id="text16">Sector Selector</text>
      <text
         xml:space="preserve"
         text-anchor="middle"
         x="931.6"
         y="-268.45"
         font-family="Helvetica,sans-Serif"
         font-size="14.00"
         id="text17">(Emotion → x,y)</text>
    </g>
    <!-- Input_Emotion&#45;&gt;XY_Mapper -->
    <g
       id="edge3"
       class="edge">
      <title
         id="title17">Input_Emotion-&gt;XY_Mapper</title>
      <path
         fill="none"
         stroke="#555555"
         d="M250.8,-269.68C250.8,-264.42 250.8,-260.6 250.8,-260.6 250.8,-260.6 856.65,-260.6 856.65,-260.6"
         id="path17" />
      <polygon
         fill="#555555"
         stroke="#555555"
         points="856.65,-264.1 866.65,-260.6 856.65,-257.1 856.65,-264.1"
         id="polygon17" />
      <text
         xml:space="preserve"
         text-anchor="middle"
         x="515.06"
         y="-252.05"
         font-family="Helvetica,sans-Serif"
         font-size="9.00"
         id="text18">Map to Quadrant</text>
    </g>
    <!-- Input_Sig -->
    <g
       id="node4"
       class="node">
      <title
         id="title18">Input_Sig</title>
      <path
         fill="#eceff1"
         stroke="black"
         stroke-width="0"
         d="M767.2,-329.9C767.2,-329.9 626.65,-329.9 626.65,-329.9 620.65,-329.9 614.65,-323.9 614.65,-317.9 614.65,-317.9 614.65,-281.6 614.65,-281.6 614.65,-275.6 620.65,-269.6 626.65,-269.6 626.65,-269.6 767.2,-269.6 767.2,-269.6 773.2,-269.6 779.2,-275.6 779.2,-281.6 779.2,-281.6 779.2,-317.9 779.2,-317.9 779.2,-323.9 773.2,-329.9 767.2,-329.9"
         id="path18" />
      <text
         xml:space="preserve"
         text-anchor="middle"
         x="696.92"
         y="-302.2"
         font-family="Helvetica,sans-Serif"
         font-size="14.00"
         id="text19">Character Significance</text>
      <text
         xml:space="preserve"
         text-anchor="middle"
         x="696.92"
         y="-286.45"
         font-family="Helvetica,sans-Serif"
         font-size="14.00"
         id="text20">(Weight)</text>
    </g>
    <!-- Input_Closeness&#45;&gt;Input_Sig -->
    <!-- Path_Gen -->
    <g
       id="node7"
       class="node">
      <title
         id="title20">Path_Gen</title>
      <path
         fill="#b3e5fc"
         stroke="black"
         stroke-width="0"
         d="M1229.8,-308.9C1229.8,-308.9 1096,-308.9 1096,-308.9 1090,-308.9 1084,-302.9 1084,-296.9 1084,-296.9 1084,-260.6 1084,-260.6 1084,-254.6 1090,-248.6 1096,-248.6 1096,-248.6 1229.8,-248.6 1229.8,-248.6 1235.8,-248.6 1241.8,-254.6 1241.8,-260.6 1241.8,-260.6 1241.8,-296.9 1241.8,-296.9 1241.8,-302.9 1235.8,-308.9 1229.8,-308.9"
         id="path20" />
      <text
         xml:space="preserve"
         text-anchor="middle"
         x="1162.9"
         y="-281.2"
         font-family="Helvetica,sans-Serif"
         font-size="14.00"
         id="text21">Spline Generator</text>
      <text
         xml:space="preserve"
         text-anchor="middle"
         x="1162.9"
         y="-265.45"
         font-family="Helvetica,sans-Serif"
         font-size="14.00"
         id="text22">(Interpolates Sectors)</text>
    </g>
    <!-- Input_Closeness&#45;&gt;Path_Gen -->
    <g
       id="edge5"
       class="edge">
      <title
         id="title22">Input_Closeness-&gt;Path_Gen</title>
      <path
         fill="none"
         stroke="#555555"
         d="M464.8,-269.95C464.8,-251.86 464.8,-232.25 464.8,-232.25 464.8,-232.25 1123.8,-232.25 1123.8,-232.25 1123.8,-232.25 1123.8,-237.26 1123.8,-237.26"
         id="path22" />
      <polygon
         fill="#555555"
         stroke="#555555"
         points="1120.3,-237.26 1123.8,-247.26 1127.3,-237.26 1120.3,-237.26"
         id="polygon22" />
      <text
         xml:space="preserve"
         text-anchor="middle"
         x="736.33"
         y="-223.7"
         font-family="Helvetica,sans-Serif"
         font-size="9.00"
         id="text23">Convergence Factor</text>
    </g>
    <!-- Shader_Calc -->
    <g
       id="node8"
       class="node">
      <title
         id="title23">Shader_Calc</title>
      <path
         fill="#e1bee7"
         stroke="black"
         stroke-width="0"
         d="M1000,-107.9C1000,-107.9 863.2,-107.9 863.2,-107.9 857.2,-107.9 851.2,-101.9 851.2,-95.9 851.2,-95.9 851.2,-59.6 851.2,-59.6 851.2,-53.6 857.2,-47.6 863.2,-47.6 863.2,-47.6 1000,-47.6 1000,-47.6 1006,-47.6 1012,-53.6 1012,-59.6 1012,-59.6 1012,-95.9 1012,-95.9 1012,-101.9 1006,-107.9 1000,-107.9"
         id="path23" />
      <text
         xml:space="preserve"
         text-anchor="middle"
         x="931.6"
         y="-80.2"
         font-family="Helvetica,sans-Serif"
         font-size="14.00"
         id="text24">Brightness Calculator</text>
      <text
         xml:space="preserve"
         text-anchor="middle"
         x="931.6"
         y="-64.45"
         font-family="Helvetica,sans-Serif"
         font-size="14.00"
         id="text25">(Sig → Opacity/Glow)</text>
    </g>
    <!-- Input_Sig&#45;&gt;Shader_Calc -->
    <g
       id="edge8"
       class="edge">
      <title
         id="title25">Input_Sig-&gt;Shader_Calc</title>
      <path
         fill="none"
         stroke="#555555"
         d="M778.84,-290.75C819.4,-290.75 859.8,-290.75 859.8,-290.75 859.8,-290.75 859.8,-119.33 859.8,-119.33"
         id="path25" />
      <polygon
         fill="#555555"
         stroke="#555555"
         points="863.3,-119.33 859.8,-109.33 856.3,-119.33 863.3,-119.33"
         id="polygon25" />
      <text
         xml:space="preserve"
         text-anchor="middle"
         x="839.17"
         y="-236.97"
         font-family="Helvetica,sans-Serif"
         font-size="9.00"
         id="text26">Weighting</text>
    </g>
    <!-- Vertices -->
    <g
       id="node9"
       class="node">
      <title
         id="title26">Vertices</title>
      <path
         fill="#ffe0b2"
         stroke="black"
         stroke-width="0"
         d="M1325.8,-170.47C1325.8,-170.47 1584.25,-170.47 1584.25,-170.47 1590.25,-170.47 1596.25,-176.47 1596.25,-182.47 1596.25,-182.47 1596.25,-203.03 1596.25,-203.03 1596.25,-209.03 1590.25,-215.03 1584.25,-215.03 1584.25,-215.03 1325.8,-215.03 1325.8,-215.03 1319.8,-215.03 1313.8,-209.03 1313.8,-203.03 1313.8,-203.03 1313.8,-182.47 1313.8,-182.47 1313.8,-176.47 1319.8,-170.47 1325.8,-170.47"
         id="path26" />
      <text
         xml:space="preserve"
         text-anchor="middle"
         x="1401.7"
         y="-187.32"
         font-family="Helvetica,sans-Serif"
         font-size="14.00"
         id="text27">Vertices (BufferAttribute)</text>
      <polyline
         fill="none"
         stroke="black"
         stroke-width="0"
         points="1489.6,-170.47 1489.6,-215.03"
         id="polyline27" />
      <text
         xml:space="preserve"
         text-anchor="middle"
         x="1507.38"
         y="-187.32"
         font-family="Helvetica,sans-Serif"
         font-size="14.00"
         id="text28">x</text>
      <polyline
         fill="none"
         stroke="black"
         stroke-width="0"
         points="1525.15,-170.47 1525.15,-215.03"
         id="polyline28" />
      <text
         xml:space="preserve"
         text-anchor="middle"
         x="1542.93"
         y="-187.32"
         font-family="Helvetica,sans-Serif"
         font-size="14.00"
         id="text29">y</text>
      <polyline
         fill="none"
         stroke="black"
         stroke-width="0"
         points="1560.7,-170.47 1560.7,-215.03"
         id="polyline29" />
      <text
         xml:space="preserve"
         text-anchor="middle"
         x="1578.48"
         y="-187.32"
         font-family="Helvetica,sans-Serif"
         font-size="14.00"
         id="text30">z</text>
    </g>
    <!-- Z_Mapper&#45;&gt;Vertices -->
    <g
       id="edge2"
       class="edge"
       transform="matrix(0.57503645,0,0,1.0470907,414.71992,8.5403713)">
      <title
         id="title30">Z_Mapper-&gt;Vertices:z</title>
      <path
         fill="none"
         stroke="#555555"
         d="m 975.55,-181.36 c 0,0 573.81,0 573.81,0"
         id="path30" />
      <polygon
         fill="#555555"
         stroke="#555555"
         points="1559.36,-181.36 1549.36,-177.86 1549.36,-184.86 "
         id="polygon30" />
    </g>
    <!-- XY_Mapper&#45;&gt;Path_Gen -->
    <g
       id="edge4"
       class="edge">
      <title
         id="title31">XY_Mapper-&gt;Path_Gen</title>
      <path
         fill="none"
         stroke="#555555"
         d="M995.11,-280.25C995.11,-280.25 1072.75,-280.25 1072.75,-280.25"
         id="path31" />
      <polygon
         fill="#555555"
         stroke="#555555"
         points="1072.75,-283.75 1082.75,-280.25 1072.75,-276.75 1072.75,-283.75"
         id="polygon31" />
      <text
         xml:space="preserve"
         text-anchor="middle"
         x="1060.55"
         y="-282.2"
         font-family="Helvetica,sans-Serif"
         font-size="9.00"
         id="text31">Target Points</text>
    </g>
    <!-- Path_Gen&#45;&gt;Vertices -->
    <g
       id="edge6"
       class="edge">
      <title
         id="title32">Path_Gen-&gt;Vertices:x</title>
      <path
         fill="none"
         stroke="#555555"
         d="m 1162.8,-248.67 v 55.92 l 146.0715,0"
         id="path32"
         sodipodi:nodetypes="ccc" />
      <polygon
         fill="#555555"
         stroke="#555555"
         points="1488.3,-192.75 1478.3,-189.25 1478.3,-196.25 "
         id="polygon32"
         transform="translate(-175.12359)" />
    </g>
    <!-- Path_Gen&#45;&gt;Vertices -->
    <g
       id="edge7"
       class="edge">
      <title
         id="title33">Path_Gen-&gt;Vertices:y</title>
      <path
         fill="none"
         stroke="#555555"
         d="m 1202.8,-248.83 v 44.69 l 111.9523,0"
         id="path33"
         sodipodi:nodetypes="ccc" />
      <polygon
         fill="#555555"
         stroke="#555555"
         points="1524.08,-204.14 1514.08,-200.64 1514.08,-207.64 "
         id="polygon33"
         transform="translate(-208.58217)" />
    </g>
    <!-- Material -->
    <g
       id="node10"
       class="node">
      <title
         id="title34">Material</title>
      <path
         fill="#ffcc80"
         stroke="black"
         stroke-width="0"
         d="M1335.33,-88.47C1335.33,-88.47 1574.73,-88.47 1574.73,-88.47 1580.73,-88.47 1586.73,-94.47 1586.73,-100.47 1586.73,-100.47 1586.73,-121.03 1586.73,-121.03 1586.73,-127.03 1580.73,-133.03 1574.73,-133.03 1574.73,-133.03 1335.33,-133.03 1335.33,-133.03 1329.33,-133.03 1323.33,-127.03 1323.33,-121.03 1323.33,-121.03 1323.33,-100.47 1323.33,-100.47 1323.33,-94.47 1329.33,-88.47 1335.33,-88.47"
         id="path34" />
      <text
         xml:space="preserve"
         text-anchor="middle"
         x="1386.85"
         y="-105.33"
         font-family="Helvetica,sans-Serif"
         font-size="14.00"
         id="text34">ShaderUniforms</text>
      <polyline
         fill="none"
         stroke="black"
         stroke-width="0"
         points="1450.38,-88.47 1450.38,-133.03"
         id="polyline34" />
      <text
         xml:space="preserve"
         text-anchor="middle"
         x="1480.9"
         y="-105.33"
         font-family="Helvetica,sans-Serif"
         font-size="14.00"
         id="text35">Color</text>
      <polyline
         fill="none"
         stroke="black"
         stroke-width="0"
         points="1511.43,-88.47 1511.43,-133.03"
         id="polyline35" />
      <text
         xml:space="preserve"
         text-anchor="middle"
         x="1549.08"
         y="-105.33"
         font-family="Helvetica,sans-Serif"
         font-size="14.00"
         id="text36">Opacity</text>
    </g>
    <!-- Shader_Calc&#45;&gt;Material -->
    <g
       id="edge9"
       class="edge"
       transform="matrix(0.62216283,0,0,1.0410307,382.38746,4.0185426)">
      <title
         id="title36">Shader_Calc-&gt;Material:op</title>
      <path
         fill="none"
         stroke="#555555"
         d="m 1011.69,-97.94 c 0,0 488.48,0 488.48,0"
         id="path36" />
      <polygon
         fill="#555555"
         stroke="#555555"
         points="1510.17,-97.94 1500.17,-94.44 1500.17,-101.44 "
         id="polygon36" />
    </g>
    <!-- Mesh -->
    <g
       id="node11"
       class="node">
      <title
         id="title37">Mesh</title>
      <polygon
         fill="#ffb74d"
         stroke="black"
         stroke-width="0"
         points="1763.8,-174.03 1668.25,-174.03 1668.25,-170.03 1664.25,-170.03 1664.25,-166.03 1668.25,-166.03 1668.25,-137.47 1664.25,-137.47 1664.25,-133.47 1668.25,-133.47 1668.25,-129.47 1763.8,-129.47 1763.8,-174.03"
         id="polygon37" />
      <polyline
         fill="none"
         stroke="black"
         stroke-width="0"
         points="1668.25,-170.03 1672.25,-170.03 1672.25,-166.03 1668.25,-166.03"
         id="polyline37" />
      <polyline
         fill="none"
         stroke="black"
         stroke-width="0"
         points="1668.25,-137.47 1672.25,-137.47 1672.25,-133.47 1668.25,-133.47"
         id="polyline38" />
      <text
         xml:space="preserve"
         text-anchor="middle"
         x="1716.02"
         y="-146.32"
         font-family="Helvetica,sans-Serif"
         font-size="14.00"
         id="text38">Final Mesh</text>
    </g>
    <!-- Vertices&#45;&gt;Mesh -->
    <g
       id="edge10"
       class="edge">
      <title
         id="title38">Vertices-&gt;Mesh</title>
      <path
         fill="none"
         stroke="#555555"
         stroke-dasharray="5,2"
         d="M1591.8,-170.66C1591.8,-166.17 1591.8,-162.79 1591.8,-162.79 1591.8,-162.79 1656.84,-162.79 1656.84,-162.79"
         id="path38" />
      <polygon
         fill="#555555"
         stroke="#555555"
         points="1656.84,-166.29 1666.84,-162.79 1656.84,-159.29 1656.84,-166.29"
         id="polygon38" />
    </g>
    <!-- Material&#45;&gt;Mesh -->
    <g
       id="edge11"
       class="edge">
      <title
         id="title39">Material-&gt;Mesh</title>
      <path
         fill="none"
         stroke="#555555"
         stroke-dasharray="5,2"
         d="M1586.56,-108.72C1651.37,-108.72 1715.8,-108.72 1715.8,-108.72 1715.8,-108.72 1715.8,-117.97 1715.8,-117.97"
         id="path39" />
      <polygon
         fill="#555555"
         stroke="#555555"
         points="1712.3,-117.97 1715.8,-127.97 1719.3,-117.97 1712.3,-117.97"
         id="polygon39" />
    </g>
  </g>
</svg>
